<?xml version="1.0" standalone="no"?>
<!DOCTYPE svg PUBLIC "-//W3C//DTD SVG 20010904//EN"
 "http://www.w3.org/TR/2001/REC-SVG-20010904/DTD/svg10.dtd">
<svg version="1.0" xmlns="http://www.w3.org/2000/svg"
 width="1440.000000pt" height="900.000000pt" viewBox="0 0 1440.000000 900.000000"
 preserveAspectRatio="xMidYMid meet">

<g transform="translate(0.000000,900.000000) scale(0.100000,-0.100000)"
fill="#000000" stroke="none">
<path d="M1 8751 c1 -217 3 -249 16 -244 9 3 13 14 10 25 -3 11 0 21 8 24 7 3
11 14 7 26 -4 16 -1 19 14 16 12 -2 20 -13 22 -31 3 -24 7 -27 40 -27 20 0 44
5 52 10 12 8 11 10 -7 10 -13 0 -23 4 -23 10 0 6 10 6 27 -1 54 -20 133 8 126
45 -3 16 3 26 21 36 14 7 24 15 21 18 -2 3 16 18 41 34 25 15 42 33 39 38 -3
6 -1 10 5 10 6 0 8 14 6 35 -3 22 0 35 7 35 7 1 2 9 -11 20 -14 12 -18 21 -12
25 8 5 6 13 -6 26 -9 10 -21 16 -26 13 -5 -3 -15 2 -23 12 -10 15 -11 22 -2
33 10 12 9 13 -3 6 -8 -5 -24 -8 -36 -7 -11 2 -27 -4 -34 -12 -7 -9 -19 -16
-27 -16 -7 0 -18 -10 -23 -22 -8 -20 -9 -18 -9 15 -1 20 -4 36 -8 36 -5 -1
-14 -1 -22 0 -11 1 -11 4 0 18 12 15 12 16 -7 11 -12 -3 -32 1 -45 8 -13 7
-50 13 -82 14 l-58 0 2 -249z m93 -9 c8 -13 -8 -28 -31 -29 -20 -2 -21 1 -10
18 12 20 32 25 41 11z m29 -139 c-7 -2 -21 -2 -30 0 -10 3 -4 5 12 5 17 0 24
-2 18 -5z"/>
<path d="M277 8993 c-12 -12 -7 -22 8 -17 8 4 15 10 15 15 0 11 -14 12 -23 2z"/>
<path d="M9715 8990 c3 -5 8 -10 11 -10 2 0 4 5 4 10 0 6 -5 10 -11 10 -5 0
-7 -4 -4 -10z"/>
<path d="M9808 8993 c7 -3 16 -2 19 1 4 3 -2 6 -13 5 -11 0 -14 -3 -6 -6z"/>
<path d="M13569 8991 c8 -5 11 -15 8 -23 -3 -8 3 -21 14 -29 10 -7 19 -21 19
-30 0 -9 7 -22 15 -29 8 -7 15 -19 15 -28 0 -8 3 -13 6 -9 4 3 18 -16 31 -43
14 -28 31 -50 39 -50 8 0 14 -7 14 -15 0 -9 7 -18 15 -21 8 -4 15 -15 15 -25
0 -10 7 -19 15 -19 8 0 15 -7 15 -15 0 -9 6 -12 15 -9 8 4 23 0 32 -7 9 -8 14
-9 10 -3 -3 6 5 16 18 22 21 10 25 9 25 -3 0 -11 11 -15 40 -15 22 0 41 5 41
10 1 6 2 16 3 23 0 7 16 13 36 13 l35 2 -33 -5 -34 -4 32 -24 c29 -21 30 -24
13 -35 -17 -11 -17 -11 3 -7 17 4 20 0 16 -19 -4 -22 -1 -24 32 -24 34 0 36 1
36 35 0 19 5 35 10 35 6 0 10 -9 10 -20 0 -12 7 -20 16 -20 10 0 14 -6 10 -15
-4 -11 2 -15 22 -15 15 0 22 -4 16 -8 -6 -4 -10 -14 -9 -23 2 -14 -4 -16 -36
-13 -21 2 -38 0 -38 -4 5 -29 -10 -36 -38 -19 -8 5 -13 3 -13 -3 0 -6 -8 -9
-18 -6 -11 4 -23 -2 -32 -14 -8 -11 -20 -20 -26 -20 -13 0 -24 -22 -24 -50 0
-10 -5 -31 -12 -47 -6 -15 -12 -40 -13 -55 -1 -22 2 -25 12 -16 10 8 13 7 13
-5 0 -9 9 -21 20 -27 15 -8 20 -21 20 -50 0 -22 -4 -40 -10 -40 -14 0 -12 -11
5 -34 8 -11 18 -16 22 -12 4 4 1 11 -6 15 -11 7 -10 11 5 18 14 7 23 5 37 -9
15 -16 15 -19 2 -24 -25 -10 -17 -24 15 -24 27 0 29 -2 20 -25 -8 -22 -7 -27
13 -35 18 -7 19 -9 4 -9 -12 -1 -17 -7 -15 -18 2 -10 -7 -28 -20 -42 -17 -18
-21 -32 -17 -52 5 -22 1 -31 -19 -45 -14 -9 -35 -14 -45 -11 -15 4 -21 -3 -29
-37 -17 -66 -23 -113 -13 -97 12 19 31 5 30 -22 0 -21 -1 -21 -9 -2 -5 11 -9
15 -9 8 -1 -6 -4 -19 -7 -27 -4 -11 -2 -15 7 -11 17 6 22 -41 8 -66 -6 -12 -4
-19 5 -22 8 -3 12 -15 9 -31 -3 -14 -9 -23 -13 -21 -5 3 -11 1 -15 -5 -3 -5 1
-10 9 -10 10 0 13 -6 10 -15 -4 -8 -2 -21 3 -28 10 -14 9 -53 -2 -79 -5 -13
-2 -18 9 -18 17 0 21 -42 20 -215 0 -38 3 -72 8 -75 10 -8 13 -85 4 -137 -4
-23 -3 -50 2 -60 5 -10 6 -27 2 -38 -5 -12 -3 -26 6 -35 7 -8 14 -38 16 -67 2
-28 6 -49 9 -47 4 2 14 -45 24 -104 10 -59 21 -109 25 -112 3 -3 7 -34 8 -70
2 -66 9 -162 15 -235 2 -23 9 -50 15 -62 6 -11 8 -24 4 -28 -8 -8 -9 -13 -11
-56 -1 -27 -3 -30 -16 -19 -20 16 -19 6 1 -14 8 -9 10 -16 4 -16 -8 0 -8 -6 0
-20 8 -14 8 -26 0 -40 -25 -47 -40 -251 -20 -275 7 -8 10 -21 7 -30 -4 -8 0
-33 8 -56 8 -23 15 -58 15 -78 0 -20 5 -52 10 -71 6 -19 11 -82 10 -140 -1
-343 -1 -398 2 -427 2 -18 6 -33 9 -33 3 0 6 -33 5 -74 -1 -41 2 -72 5 -70 4
2 7 -15 8 -39 1 -23 2 -46 3 -52 2 -42 -15 -192 -22 -199 -5 -5 -5 -17 2 -29
7 -14 7 -22 -3 -28 -10 -6 -10 -11 -1 -22 8 -10 10 -51 6 -143 -8 -183 -10
-384 -4 -384 3 0 6 -11 6 -24 1 -13 12 -34 23 -45 12 -12 20 -28 18 -34 -7
-21 64 -46 131 -47 l62 0 0 2055 c0 2048 0 2055 -20 2055 -11 0 -20 -4 -20 -9
0 -6 -12 -9 -27 -8 -29 2 -31 -5 -17 -50 4 -16 2 -23 -8 -23 -7 0 -21 -13 -31
-29 -14 -25 -15 -30 -2 -41 7 -6 11 -18 9 -25 -7 -17 -76 -14 -82 3 -2 7 -8
10 -13 6 -5 -3 -9 5 -9 16 0 15 -5 20 -14 17 -7 -3 -23 7 -35 23 -29 40 -27
54 7 46 15 -4 22 -3 16 1 -14 10 -24 62 -12 69 13 9 -1 24 -23 24 -17 0 -18 2
-7 13 7 7 22 17 33 21 16 7 17 9 5 14 -8 3 -18 10 -22 16 -5 7 -8 4 -8 -6 0
-13 -8 -18 -26 -18 -24 0 -24 1 -9 16 13 14 14 19 3 25 -10 7 -9 9 5 9 10 0
17 8 17 20 0 24 -4 25 -25 4 -26 -27 -26 -11 1 21 13 17 23 23 22 15 -2 -8 6
-16 20 -18 12 -2 22 -10 22 -18 0 -8 7 -17 15 -20 8 -4 15 -13 15 -22 0 -22
30 20 39 56 8 29 31 42 31 18 0 -24 29 -19 40 7 5 12 9 18 9 14 1 -4 7 -2 15
5 9 9 11 17 5 25 -12 14 6 27 23 17 7 -4 8 -3 4 4 -4 7 -2 12 5 12 6 0 9 -8 6
-20 -5 -21 1 -24 27 -14 20 8 21 34 2 34 -17 0 -15 62 2 68 9 3 12 121 12 473
l0 469 -422 0 c-249 0 -417 -4 -409 -9z m364 -308 c-7 -2 -19 -2 -25 0 -7 3
-2 5 12 5 14 0 19 -2 13 -5z m217 -23 c0 -5 -4 -10 -10 -10 -5 0 -10 5 -10 10
0 6 5 10 10 10 6 0 10 -4 10 -10z m-62 -207 c-30 -16 -48 -16 -48 0 0 8 13 13
35 13 34 0 35 -1 13 -13z m80 0 c-10 -2 -26 -2 -35 0 -10 3 -2 5 17 5 19 0 27
-2 18 -5z m-173 -131 c-10 -10 -25 21 -24 48 1 23 2 22 15 -9 8 -18 12 -36 9
-39z m-5 -32 c0 -5 -5 -10 -11 -10 -5 0 -7 5 -4 10 3 6 8 10 11 10 2 0 4 -4 4
-10z m235 -320 c3 -5 1 -10 -4 -10 -6 0 -11 5 -11 10 0 6 2 10 4 10 3 0 8 -4
11 -10z m-142 -207 c-7 -2 -21 -2 -30 0 -10 3 -4 5 12 5 17 0 24 -2 18 -5z
m-86 -265 c-3 -8 -6 -5 -6 6 -1 11 2 17 5 13 3 -3 4 -12 1 -19z"/>
<path d="M5385 8691 c-3 -6 -15 -11 -27 -11 -14 0 -18 -5 -14 -15 3 -10 -1
-14 -12 -13 -34 3 -49 -2 -49 -17 0 -8 4 -15 9 -15 4 0 8 -4 8 -10 0 -5 -9
-10 -20 -10 -12 0 -20 -7 -20 -16 0 -10 6 -14 15 -10 8 3 15 1 15 -3 0 -13
-27 -21 -47 -15 -12 4 -14 3 -6 -3 12 -8 6 -49 -15 -103 -7 -18 -10 -44 -13
-127 -1 -45 3 -70 15 -88 10 -15 15 -29 12 -32 -3 -3 4 -28 14 -57 23 -59 23
-59 10 -51 -5 3 -3 -9 4 -27 8 -18 19 -34 25 -36 14 -5 15 -72 1 -72 -5 0 -10
-5 -10 -11 0 -7 10 -9 28 -5 18 4 22 4 13 -3 -19 -12 -5 -30 18 -24 10 3 22 0
25 -6 9 -14 36 -14 36 -1 0 6 -6 10 -13 8 -7 -2 -14 2 -15 7 -2 6 11 12 28 15
30 5 66 52 55 70 -3 5 10 16 30 26 19 9 35 23 35 31 0 9 6 13 14 10 17 -7 46
27 46 54 0 15 5 19 15 15 19 -7 56 28 58 54 1 10 4 17 9 14 11 -7 28 31 29 68
0 27 2 30 9 13 6 -14 9 0 9 45 0 64 -13 100 -37 100 -6 0 -9 6 -7 13 3 6 -9
20 -26 29 -22 13 -29 23 -25 36 4 12 -4 28 -24 47 -16 16 -30 36 -30 44 0 14
2 14 11 1 7 -10 9 -11 7 -2 -2 8 -7 13 -12 12 -4 -1 -21 11 -37 26 -16 15 -29
24 -30 18 0 -5 -5 2 -10 15 -7 17 -14 21 -27 16 -21 -9 -33 -9 -53 -1 -10 4
-20 3 -24 -3z m25 -11 c0 -5 -2 -10 -4 -10 -3 0 -8 5 -11 10 -3 6 -1 10 4 10
6 0 11 -4 11 -10z m287 -332 c-3 -7 -5 -2 -5 12 0 14 2 19 5 13 2 -7 2 -19 0
-25z m-277 -380 c0 -5 -9 -8 -20 -8 -23 0 -26 10 -8 28 9 9 14 9 20 -1 4 -6 8
-15 8 -19z m-60 -9 c0 -5 -4 -9 -8 -9 -5 0 -9 7 -9 15 0 8 4 12 9 9 4 -3 8 -9
8 -15z"/>
<path d="M13750 8644 c0 -8 5 -12 10 -9 6 3 10 -1 10 -10 0 -18 24 -30 40 -20
6 4 -2 16 -19 31 -34 28 -41 30 -41 8z"/>
<path d="M14130 8546 c7 -7 14 -6 21 1 9 9 7 12 -9 10 -14 -1 -18 -5 -12 -11z"/>
<path d="M13995 8540 c-3 -5 1 -10 9 -10 9 0 16 5 16 10 0 6 -4 10 -9 10 -6 0
-13 -4 -16 -10z"/>
<path d="M14059 8529 c-10 -6 -7 -9 14 -9 29 0 35 5 14 13 -8 3 -20 1 -28 -4z"/>
<path d="M120 8490 c0 -23 4 -30 20 -30 16 0 20 7 20 30 0 23 -4 30 -20 30
-16 0 -20 -7 -20 -30z"/>
<path d="M13930 8450 c0 -5 5 -10 10 -10 6 0 10 5 10 10 0 6 -4 10 -10 10 -5
0 -10 -4 -10 -10z"/>
<path d="M126 8371 c21 -21 36 -18 27 4 -3 8 -14 15 -26 15 -20 0 -20 0 -1
-19z"/>
<path d="M13915 8160 c-3 -5 1 -10 9 -10 9 0 16 5 16 10 0 6 -4 10 -9 10 -6 0
-13 -4 -16 -10z"/>
<path d="M9030 8020 c-12 -8 -9 -10 13 -10 15 0 27 5 27 10 0 13 -20 13 -40 0z"/>
<path d="M13940 7990 c0 -5 -1 -13 -2 -17 -4 -8 33 -14 51 -8 11 4 11 8 1 20
-14 17 -50 20 -50 5z"/>
<path d="M8646 7951 c-7 -10 17 -21 42 -21 15 1 14 3 -2 15 -23 17 -33 19 -40
6z"/>
<path d="M13963 7923 c-7 -2 -13 -14 -13 -26 1 -20 2 -21 14 -4 8 10 26 17 45
17 17 0 31 5 31 10 0 10 -55 13 -77 3z"/>
<path d="M5375 7870 c-3 -5 -2 -10 4 -10 5 0 13 5 16 10 3 6 2 10 -4 10 -5 0
-13 -4 -16 -10z"/>
<path d="M14330 7844 c0 -8 5 -12 10 -9 6 3 10 10 10 16 0 5 -4 9 -10 9 -5 0
-10 -7 -10 -16z"/>
<path d="M5360 7825 c0 -8 5 -15 10 -15 6 0 10 7 10 15 0 8 -4 15 -10 15 -5 0
-10 -7 -10 -15z"/>
<path d="M5420 7820 c0 -5 7 -10 16 -10 8 0 12 5 9 10 -3 6 -10 10 -16 10 -5
0 -9 -4 -9 -10z"/>
<path d="M5391 7778 c-1 -27 -5 -38 -16 -38 -11 0 -15 -12 -15 -49 0 -44 3
-51 28 -63 44 -22 52 -13 52 59 0 51 -4 69 -18 82 -11 9 -21 23 -25 31 -3 8
-6 -2 -6 -22z"/>
<path d="M8523 7800 c-47 -19 -13 -64 58 -76 l34 -5 -28 21 c-15 12 -32 32
-39 43 -10 19 -9 20 4 9 16 -13 48 -7 48 9 0 11 -48 11 -77 -1z"/>
<path d="M8382 7774 c-21 -15 -30 -44 -14 -44 5 0 19 11 31 24 26 28 14 42
-17 20z"/>
<path d="M9049 7777 c5 -5 21 -7 37 -5 27 3 26 4 -8 9 -22 3 -34 1 -29 -4z"/>
<path d="M8464 7747 c-68 -40 -223 -204 -310 -328 -21 -31 -56 -76 -76 -100
-20 -24 -65 -78 -99 -119 -34 -41 -65 -74 -69 -73 -10 3 -55 -63 -74 -109
l-16 -37 73 2 c74 2 117 -13 239 -86 34 -20 38 -20 55 -5 13 12 23 14 36 6 26
-14 68 -2 61 17 -4 10 0 15 12 16 11 1 -17 10 -61 20 -44 11 -83 26 -88 34 -4
8 -14 15 -21 15 -8 0 -19 7 -26 15 -10 12 -10 15 0 15 10 0 10 3 0 15 -11 13
-8 14 17 9 19 -4 42 0 62 10 33 17 77 16 124 -3 37 -14 50 -14 45 1 -3 7 -29
20 -59 30 -30 9 -46 17 -35 17 15 1 16 4 6 16 -10 13 -9 15 8 15 11 0 32 -4
47 -10 34 -13 142 -1 149 16 4 10 -7 16 -34 20 -22 4 -40 10 -40 14 0 4 -10
12 -22 18 -19 9 -15 10 23 5 26 -3 55 -1 65 6 11 5 13 11 7 11 -7 0 -13 5 -13
11 0 7 10 9 26 5 29 -8 64 1 64 15 0 6 -4 8 -8 5 -5 -3 -26 1 -47 8 -44 15
-34 21 49 31 58 7 82 18 96 45 8 16 8 20 -4 20 -7 0 -16 -7 -20 -15 -3 -8 -15
-15 -27 -15 -18 0 -19 2 -9 15 11 13 8 15 -18 15 -17 0 -33 4 -36 9 -3 4 -19
11 -35 14 -16 3 -42 17 -57 31 l-29 24 45 -8 c54 -10 76 4 34 21 -24 10 -26
13 -11 16 12 3 17 11 14 22 -4 16 2 17 44 13 27 -2 49 -2 49 1 0 5 -62 45 -90
59 -12 5 -12 7 -1 7 11 1 11 5 -3 20 -16 18 -15 18 11 14 l28 -4 -30 27 c-27
24 -27 26 -6 19 16 -5 21 -4 17 4 -4 6 -14 11 -22 11 -9 0 -12 5 -8 11 3 6 19
9 35 5 23 -4 27 -3 22 12 -3 9 -10 22 -14 28 -5 6 -5 15 -1 19 4 5 -1 5 -12 1
-14 -5 -17 -2 -12 9 6 18 7 18 -20 2z m-317 -788 c82 -40 54 -49 -44 -15 -33
11 -53 23 -53 33 0 18 33 12 97 -18z"/>
<path d="M14260 7680 c0 -5 5 -10 11 -10 5 0 7 5 4 10 -3 6 -8 10 -11 10 -2 0
-4 -4 -4 -10z"/>
<path d="M11415 7580 c-16 -17 -16 -20 -2 -20 9 0 28 5 44 11 22 8 24 12 13
19 -22 14 -35 12 -55 -10z"/>
<path d="M11158 7569 c-21 -12 -43 -49 -29 -49 5 0 19 14 31 30 23 33 23 34
-2 19z"/>
<path d="M8858 7532 c-17 -2 -28 -9 -28 -18 0 -10 6 -13 18 -10 9 3 44 2 77
-3 55 -8 106 1 91 16 -7 8 -125 19 -158 15z"/>
<path d="M10924 7405 c-17 -43 -17 -45 1 -45 17 0 11 -21 -17 -62 -22 -32 -23
-52 -3 -44 16 6 21 -14 6 -29 -5 -6 -12 -20 -15 -32 -6 -18 -4 -20 14 -16 19
5 20 2 16 -49 -5 -75 -65 -178 -103 -178 -27 0 -34 9 -22 31 8 16 6 19 -18 20
-64 3 -62 1 -48 44 l7 20 -16 -20 c-30 -37 -58 -65 -67 -65 -17 0 -9 39 12 59
20 18 20 19 2 15 -17 -5 -19 -1 -15 30 3 28 1 34 -13 32 -10 -1 -23 -13 -31
-27 -15 -27 -17 -23 -14 41 1 25 6 50 12 57 5 6 8 24 6 40 -3 27 -4 27 -25
-17 -27 -56 -40 -182 -18 -173 8 3 15 0 15 -6 0 -6 -4 -11 -9 -11 -6 0 -9 -8
-9 -17 0 -10 -2 -25 -6 -34 -10 -23 19 -45 38 -30 16 13 29 1 22 -21 -18 -57
-17 -67 11 -70 18 -2 29 -10 32 -23 2 -11 12 -27 22 -36 12 -11 16 -23 12 -40
-3 -13 -3 -21 2 -17 4 4 14 0 23 -8 8 -9 23 -13 33 -11 15 4 17 2 9 -13 -8
-15 -4 -19 25 -24 32 -6 34 -9 28 -36 -5 -27 -3 -30 18 -30 15 0 35 -13 53
-34 15 -19 41 -40 57 -46 16 -7 29 -19 29 -27 0 -22 60 -42 111 -37 41 5 117
37 129 55 8 12 80 59 90 59 5 0 14 9 20 19 5 11 18 20 28 20 9 0 39 5 66 10
30 7 94 8 160 5 61 -4 146 -7 189 -8 42 -1 77 -4 77 -7 0 -3 -10 -11 -22 -17
-21 -10 -19 -11 17 -13 22 -1 46 -2 53 -2 8 1 22 -7 33 -18 10 -10 28 -19 40
-19 15 0 19 -5 14 -19 -4 -13 0 -20 14 -24 14 -3 17 -11 14 -31 -3 -16 -1 -26
6 -26 7 0 9 -5 6 -10 -9 -15 14 -40 36 -40 12 0 23 -10 29 -25 5 -14 13 -25
18 -25 16 0 52 41 52 59 0 11 7 21 15 25 11 4 15 22 15 74 0 73 10 92 47 92
16 0 21 4 16 15 -5 15 39 -9 170 -93 67 -44 83 -36 79 39 -4 70 -18 113 -53
170 -16 25 -29 52 -29 60 0 8 -30 45 -65 83 -36 37 -65 72 -65 77 0 15 -21 21
-34 10 -11 -9 -15 -6 -20 11 -3 13 -6 33 -6 44 0 19 -60 84 -76 84 -10 0 7
-44 28 -73 24 -34 17 -44 -18 -28 l-26 12 21 -36 c11 -20 21 -37 21 -39 0 -8
-36 -1 -42 8 -6 8 -11 6 -18 -4 -8 -13 -13 -13 -31 -2 -11 7 -24 11 -27 8 -3
-3 -3 -7 -1 -9 2 -1 23 -17 45 -34 23 -18 53 -35 68 -39 43 -10 39 -23 -5 -17
-29 4 -44 2 -50 -8 -6 -11 -11 -11 -21 -1 -9 9 -9 12 1 12 7 0 9 5 6 10 -3 6
-15 10 -26 10 -10 0 -24 9 -31 19 -9 15 -16 17 -34 9 l-23 -11 19 -27 c11 -16
20 -35 20 -43 0 -21 -26 -28 -41 -11 -25 31 -20 3 7 -32 16 -20 29 -43 30 -52
2 -9 5 -26 9 -39 4 -17 1 -23 -10 -23 -9 0 -13 5 -10 10 3 6 0 10 -9 10 -8 0
-16 3 -18 8 -2 4 -14 17 -28 29 -21 18 -31 20 -60 13 -24 -5 -28 -8 -12 -9 24
-1 31 -21 7 -21 -8 0 -15 -4 -15 -10 0 -5 -8 -10 -17 -9 -11 0 -13 3 -5 6 25
10 10 20 -38 26 -28 3 -64 15 -79 27 -16 11 -34 20 -40 20 -14 0 -61 45 -61
59 0 6 -6 11 -12 12 -7 0 -25 2 -40 4 -16 2 -29 -2 -32 -11 -7 -18 -24 -18
-60 1 -15 8 -34 15 -40 15 -7 0 -23 10 -35 21 -14 13 -36 22 -52 21 -16 0 -27
4 -24 9 4 5 -1 9 -9 9 -9 0 -15 5 -13 12 2 14 -83 46 -125 47 -17 1 -32 9 -38
22 -9 16 -18 19 -39 14 -24 -5 -27 -3 -26 22 1 15 -3 38 -9 50 -7 18 -12 20
-23 11 -17 -14 -31 -2 -15 14 18 18 14 31 -8 25 -11 -3 -18 -1 -14 4 3 5 11 9
18 9 15 0 60 47 71 75 8 19 10 26 14 65 0 8 16 22 34 30 23 10 27 15 15 18
-18 4 -67 -27 -68 -42 0 -5 -15 -24 -34 -42 l-34 -33 -5 25 c-3 16 1 28 12 33
13 8 14 13 2 35 -13 23 -12 28 4 46 23 25 18 25 -40 0 -56 -24 -61 -25 -45 -5
10 12 10 15 -1 15 -11 1 -10 4 2 13 14 11 14 14 2 26 -8 7 -12 22 -10 32 9 34
-23 21 -39 -16z m28 -27 c-7 -7 -12 -8 -12 -2 0 14 12 26 19 19 2 -3 -1 -11
-7 -17z m663 -568 c3 -5 -1 -10 -9 -10 -9 0 -16 5 -16 10 0 6 4 10 9 10 6 0
13 -4 16 -10z m-645 -79 c0 -5 -7 -12 -16 -15 -24 -9 -28 -7 -14 9 14 17 30
20 30 6z m966 -56 c-8 -8 -17 -15 -19 -15 -3 0 -7 7 -11 15 -4 11 2 15 20 15
23 0 24 -2 10 -15z m49 -15 c3 -5 -1 -10 -10 -10 -9 0 -13 5 -10 10 3 6 8 10
10 10 2 0 7 -4 10 -10z m30 -40 c8 -13 -15 -13 -35 0 -12 8 -11 10 7 10 12 0
25 -4 28 -10z"/>
<path d="M8007 7423 c-4 -3 -7 -11 -7 -17 0 -6 5 -5 12 2 6 6 9 14 7 17 -3 3
-9 2 -12 -2z"/>
<path d="M13486 7395 c-3 -8 -1 -15 4 -15 6 0 10 7 10 15 0 8 -2 15 -4 15 -2
0 -6 -7 -10 -15z"/>
<path d="M13646 7381 c-24 -27 -12 -42 27 -34 42 8 53 19 37 38 -17 21 -43 19
-64 -4z"/>
<path d="M1308 7373 c12 -2 32 -2 45 0 12 2 2 4 -23 4 -25 0 -35 -2 -22 -4z"/>
<path d="M1306 7347 c-20 -15 -14 -37 9 -37 18 0 24 11 16 33 -6 15 -9 16 -25
4z"/>
<path d="M11498 7353 c7 -3 16 -2 19 1 4 3 -2 6 -13 5 -11 0 -14 -3 -6 -6z"/>
<path d="M1740 7211 c13 -26 43 -28 38 -3 -2 9 -14 18 -26 20 -21 3 -22 1 -12
-17z"/>
<path d="M1707 7203 c-12 -11 -8 -23 8 -23 8 0 15 -5 15 -12 0 -6 3 -9 6 -5 3
3 0 15 -8 26 -8 12 -18 18 -21 14z"/>
<path d="M10817 7187 c-11 -29 -9 -43 4 -30 6 6 9 19 7 29 -3 18 -4 18 -11 1z"/>
<path d="M10640 7177 c0 -9 -4 -17 -10 -17 -5 0 -7 -7 -3 -15 5 -13 8 -12 20
5 11 16 12 25 4 33 -8 8 -11 7 -11 -6z"/>
<path d="M1660 7170 c0 -5 5 -10 10 -10 6 0 10 5 10 10 0 6 -4 10 -10 10 -5 0
-10 -4 -10 -10z"/>
<path d="M13602 7173 c-7 -3 -19 -18 -28 -35 l-15 -29 40 23 c44 25 61 48 33
47 -9 0 -23 -3 -30 -6z"/>
<path d="M1900 7130 c0 -5 5 -10 10 -10 6 0 10 5 10 10 0 6 -4 10 -10 10 -5 0
-10 -4 -10 -10z"/>
<path d="M617 7124 c-4 -4 -4 -10 -2 -14 6 -10 45 0 45 11 0 10 -33 12 -43 3z"/>
<path d="M8288 7103 c6 -2 18 -2 25 0 6 3 1 5 -13 5 -14 0 -19 -2 -12 -5z"/>
<path d="M8443 7098 c-18 -6 -33 -15 -33 -20 0 -5 5 -6 10 -3 6 3 10 1 10 -6
0 -7 -10 -9 -25 -6 l-26 4 21 -19 c21 -20 21 -20 47 3 27 26 48 60 36 58 -4
-1 -23 -6 -40 -11z"/>
<path d="M10731 7094 c0 -11 3 -14 6 -6 3 7 2 16 -1 19 -3 4 -6 -2 -5 -13z"/>
<path d="M13410 7012 c-36 -38 -73 -85 -83 -103 -14 -25 -14 -29 -2 -14 8 11
47 52 86 92 39 40 69 77 67 84 -2 6 -33 -20 -68 -59z"/>
<path d="M9659 7041 c-12 -17 -28 -27 -35 -24 -8 3 -14 0 -14 -7 0 -6 -5 -8
-10 -5 -6 3 -13 -1 -16 -10 -4 -9 -13 -13 -23 -10 -9 3 -38 7 -64 10 -38 5
-47 3 -47 -10 0 -15 -8 -17 -82 -19 -36 -1 -68 -16 -34 -16 9 0 15 -4 11 -10
-3 -5 -12 -7 -20 -4 -8 3 -19 3 -25 -1 -6 -4 -52 -8 -103 -9 -80 -2 -97 -6
-126 -27 -28 -21 -44 -24 -119 -25 -48 0 -102 -5 -121 -10 l-34 -9 52 -33 c29
-17 57 -32 62 -32 6 0 24 -8 42 -17 18 -10 63 -23 102 -30 38 -6 74 -18 80
-25 6 -7 19 -18 30 -25 11 -6 19 -16 17 -22 -1 -6 2 -11 7 -11 4 0 34 -24 66
-54 37 -35 56 -59 52 -69 -6 -17 10 -37 30 -37 8 0 23 -9 35 -20 12 -11 28
-20 35 -20 7 0 13 -6 13 -13 0 -8 19 -13 56 -15 52 -3 55 -2 49 16 -5 17 0 22
25 27 17 4 34 13 37 21 3 8 10 14 17 14 16 0 43 33 39 47 -2 6 8 13 22 17 14
4 25 13 25 22 0 8 8 18 18 21 21 8 62 50 62 65 0 5 7 8 15 5 17 -7 55 42 55
70 0 27 10 34 31 22 15 -8 19 -6 19 9 0 20 -29 52 -48 52 -7 0 -12 13 -12 29
0 32 -15 49 -24 29 -6 -16 -36 18 -36 42 0 8 -13 31 -29 50 -15 19 -31 45 -35
58 -10 29 -21 28 -47 -7z m-141 -259 c5 -17 -27 -27 -41 -13 -9 9 -8 14 3 21
18 11 32 8 38 -8z"/>
<path d="M12235 7060 c3 -5 8 -10 11 -10 2 0 4 5 4 10 0 6 -5 10 -11 10 -5 0
-7 -4 -4 -10z"/>
<path d="M11856 7025 c7 -16 42 -30 52 -20 8 8 -26 35 -45 35 -7 0 -10 -6 -7
-15z"/>
<path d="M8450 7020 c-26 -16 -4 -21 26 -5 23 12 25 15 9 15 -11 0 -27 -4 -35
-10z"/>
<path d="M5545 6990 c-3 -5 1 -10 9 -10 9 0 16 5 16 10 0 6 -4 10 -9 10 -6 0
-13 -4 -16 -10z"/>
<path d="M5585 6990 c-3 -5 1 -10 10 -10 9 0 13 5 10 10 -3 6 -8 10 -10 10 -2
0 -7 -4 -10 -10z"/>
<path d="M5437 6964 c-11 -15 -14 -24 -6 -24 7 0 2 -8 -9 -19 -15 -13 -22 -30
-22 -56 0 -21 -6 -43 -15 -49 -8 -6 -16 -23 -17 -37 -2 -15 -9 -33 -16 -41
-15 -19 -24 -195 -14 -270 5 -32 5 -58 1 -58 -3 0 -9 -11 -11 -24 -4 -20 1
-25 34 -35 72 -22 333 -71 378 -71 44 0 277 20 474 41 54 6 178 14 275 19 97
5 205 12 241 16 l64 7 -79 38 c-44 22 -83 39 -87 39 -4 0 -19 5 -35 11 -15 7
-47 11 -70 10 -26 -2 -43 2 -43 9 0 7 -6 8 -17 2 -27 -13 -86 -14 -78 -2 4 6
3 10 -2 9 -25 -4 -43 3 -43 19 0 10 -3 13 -8 6 -7 -11 -53 -15 -47 -4 2 4 -5
13 -17 21 -11 8 -26 19 -33 26 -7 7 -16 9 -21 5 -5 -4 -2 1 5 11 12 15 11 20
-5 32 -23 17 -34 19 -34 4 0 -5 -5 -7 -10 -4 -6 4 -8 11 -4 16 3 6 -3 17 -15
25 -12 9 -30 35 -41 60 -11 24 -24 44 -29 44 -14 0 -31 -26 -23 -35 4 -5 2 -5
-5 -1 -7 4 -10 13 -7 20 3 8 0 17 -5 21 -6 3 -8 11 -5 17 4 7 2 8 -5 4 -6 -4
-9 -17 -7 -29 4 -16 2 -15 -7 4 -11 25 -13 26 -34 12 -17 -11 -23 -12 -23 -3
0 8 -9 11 -25 8 -13 -3 -23 -2 -21 1 2 3 0 15 -5 26 -6 17 -8 17 -8 3 -1 -22
-8 -22 -46 1 -16 10 -30 24 -29 32 1 8 -8 15 -20 15 -59 4 -76 9 -73 24 1 8
-3 14 -10 13 -6 -1 -17 5 -25 14 -11 14 -11 16 0 9 11 -7 12 -4 3 13 -7 11
-19 21 -27 21 -8 0 -13 4 -10 9 11 17 -19 29 -69 27 -31 -1 -59 4 -75 14 -15
9 -21 10 -17 3 9 -14 -5 -18 -17 -6 -14 14 -32 10 -49 -13z"/>
<path d="M9368 6983 c7 -3 16 -2 19 1 4 3 -2 6 -13 5 -11 0 -14 -3 -6 -6z"/>
<path d="M11950 6977 c0 -14 40 -76 44 -68 7 10 -25 71 -36 71 -5 0 -8 -1 -8
-3z"/>
<path d="M9228 6963 c7 -3 16 -2 19 1 4 3 -2 6 -13 5 -11 0 -14 -3 -6 -6z"/>
<path d="M11880 6960 c0 -5 5 -10 11 -10 5 0 7 5 4 10 -3 6 -8 10 -11 10 -2 0
-4 -4 -4 -10z"/>
<path d="M880 6941 c0 -6 5 -13 10 -16 6 -3 10 1 10 9 0 9 -4 16 -10 16 -5 0
-10 -4 -10 -9z"/>
<path d="M8520 6940 c0 -10 37 -23 48 -16 4 2 32 -4 62 -15 62 -22 70 -23 70
-9 0 6 -6 10 -12 10 -7 0 -26 7 -43 16 -33 17 -125 28 -125 14z"/>
<path d="M13537 6929 c-23 -18 -56 -62 -101 -136 -4 -8 -1 -13 8 -13 9 0 16 5
16 11 0 6 25 38 55 71 30 32 55 66 55 74 0 18 1 18 -33 -7z"/>
<path d="M915 6923 c-14 -33 -13 -62 1 -67 11 -4 14 5 14 39 0 48 -4 55 -15
28z"/>
<path d="M8426 6927 c5 -15 68 -17 81 -3 4 5 3 6 -4 2 -6 -3 -14 -2 -18 4 -10
15 -65 13 -59 -3z"/>
<path d="M8950 6920 c-11 -7 -5 -10 23 -10 20 0 37 4 37 8 0 11 -43 13 -60 2z"/>
<path d="M11923 6896 c15 -14 33 -26 40 -26 13 1 -16 26 -48 41 -13 7 -10 1 8
-15z"/>
<path d="M597 6899 c-27 -16 -52 -79 -36 -90 17 -10 63 28 83 69 15 31 15 32
-7 32 -12 0 -30 -5 -40 -11z"/>
<path d="M981 6894 c0 -11 3 -14 6 -6 3 7 2 16 -1 19 -3 4 -6 -2 -5 -13z"/>
<path d="M8440 6891 c0 -6 3 -11 8 -12 4 0 14 -2 22 -4 8 -2 25 -6 38 -9 13
-3 32 -8 43 -11 13 -4 19 -2 19 9 0 8 -12 17 -27 20 -84 16 -103 18 -103 7z"/>
<path d="M860 6870 c0 -5 5 -10 11 -10 5 0 7 5 4 10 -3 6 -8 10 -11 10 -2 0
-4 -4 -4 -10z"/>
<path d="M13275 6860 c-3 -5 -1 -10 4 -10 6 0 11 5 11 10 0 6 -2 10 -4 10 -3
0 -8 -4 -11 -10z"/>
<path d="M5870 6811 c0 -6 4 -13 10 -16 6 -3 7 1 4 9 -7 18 -14 21 -14 7z"/>
<path d="M11710 6811 c0 -10 24 -21 43 -21 7 0 3 7 -7 15 -22 17 -36 19 -36 6z"/>
<path d="M487 6770 c-43 -61 -87 -204 -57 -185 5 3 17 31 26 61 8 30 31 77 50
105 38 57 39 59 22 59 -7 0 -26 -18 -41 -40z"/>
<path d="M13355 6730 c-3 -5 -1 -10 4 -10 6 0 11 5 11 10 0 6 -2 10 -4 10 -3
0 -8 -4 -11 -10z"/>
<path d="M13320 6699 c0 -5 5 -7 10 -4 6 3 10 8 10 11 0 2 -4 4 -10 4 -5 0
-10 -5 -10 -11z"/>
<path d="M991 6674 c1 -16 -6 -49 -14 -74 -26 -70 -20 -120 13 -120 26 0 41
23 36 56 -19 126 -39 207 -35 138z"/>
<path d="M13477 6677 c-9 -13 -40 -40 -69 -60 -76 -53 -83 -58 -101 -96 -21
-43 -13 -53 16 -20 12 14 41 40 64 58 42 32 120 128 111 137 -3 2 -12 -6 -21
-19z"/>
<path d="M13277 6666 c-9 -7 -17 -19 -17 -27 0 -9 8 -6 22 9 25 24 22 37 -5
18z"/>
<path d="M13202 6583 c-30 -46 -34 -62 -12 -48 11 7 60 80 60 90 0 17 -22 -2
-48 -42z"/>
<path d="M620 6554 c-17 -82 -2 -104 21 -29 23 73 23 85 5 85 -10 0 -19 -19
-26 -56z"/>
<path d="M1167 6553 c-9 -21 -16 -49 -15 -63 1 -14 -2 -51 -6 -83 -7 -57 -7
-59 16 -55 18 2 25 12 32 46 6 29 13 41 22 38 23 -9 25 12 5 51 -21 42 -21 42
-21 78 0 36 -14 31 -33 -12z"/>
<path d="M12960 6488 c-26 -29 -25 -48 3 -48 29 0 47 18 47 47 0 29 -23 30
-50 1z"/>
<path d="M12800 6184 c0 -9 5 -14 12 -12 18 6 21 28 4 28 -9 0 -16 -7 -16 -16z"/>
<path d="M11470 6119 c0 -6 -9 -8 -22 -3 -21 6 -22 5 -8 -11 11 -13 24 -16 58
-11 54 7 69 15 51 27 -20 12 -79 11 -79 -2z"/>
<path d="M13222 6077 c-34 -24 -51 -48 -73 -100 -16 -38 -29 -76 -29 -84 0
-31 138 143 154 195 10 30 -1 28 -52 -11z"/>
<path d="M10180 6023 c0 -12 -44 -33 -69 -33 -9 0 -35 -13 -57 -30 -21 -16
-49 -30 -60 -30 -33 0 -48 -24 -29 -44 21 -21 11 -36 -25 -36 -24 0 -34 -8
-55 -43 -14 -24 -25 -55 -25 -70 0 -14 -4 -28 -9 -31 -4 -3 -6 -16 -4 -30 3
-13 0 -27 -6 -30 -7 -5 -7 -14 3 -29 20 -32 28 -97 12 -97 -21 0 -69 -57 -63
-74 4 -10 -3 -21 -21 -30 l-27 -15 33 -1 c34 0 43 -17 15 -27 -32 -11 -73 -44
-73 -58 0 -8 14 -18 31 -23 l32 -8 -29 -24 c-32 -28 -61 -76 -51 -86 3 -4 18
3 33 15 15 11 30 21 35 21 19 0 -1 -51 -34 -85 -20 -21 -37 -44 -37 -52 0 -7
-7 -13 -15 -13 -17 0 -20 -16 -4 -25 20 -13 -40 -35 -66 -25 -18 7 -25 6 -25
-3 -1 -6 -9 -2 -19 11 -11 12 -28 22 -40 22 -11 0 -23 5 -26 10 -3 6 -21 10
-38 10 -18 0 -42 3 -54 6 -26 7 -111 136 -94 142 21 7 11 31 -18 47 -23 11
-29 21 -29 45 1 16 -5 36 -11 44 -7 8 -10 20 -6 26 3 5 -9 29 -28 53 -19 23
-38 53 -42 65 -7 25 -60 108 -74 117 -13 8 -21 -76 -9 -99 19 -37 23 -43 43
-71 14 -20 16 -30 7 -33 -6 -2 -12 -15 -12 -28 0 -23 -9 -29 -39 -24 -10 1
-12 -5 -7 -19 3 -12 9 -30 12 -41 5 -16 3 -19 -11 -13 -17 6 -18 1 -12 -55 5
-49 4 -62 -7 -62 -33 0 -38 -112 -7 -143 13 -13 15 -67 3 -67 -16 0 -93 87
-93 106 0 26 16 98 25 112 4 7 2 28 -5 46 -10 28 -10 38 0 50 20 24 1 19 -20
-6 -11 -11 -19 -33 -19 -48 0 -14 -5 -31 -11 -37 -6 -6 -12 -17 -13 -24 -2 -8
-8 -27 -14 -42 -7 -16 -12 -42 -12 -58 0 -20 -5 -29 -16 -29 -12 0 -14 7 -9
31 7 29 6 30 -14 19 -12 -6 -27 -20 -34 -30 -6 -11 -17 -20 -24 -20 -16 0 -16
2 2 36 17 33 20 64 5 64 -5 0 -10 -3 -10 -7 -2 -21 -69 -81 -97 -87 -29 -7
-33 -4 -48 28 -23 47 -29 45 -22 -7 6 -39 4 -43 -25 -60 -17 -10 -50 -20 -73
-24 -39 -5 -43 -4 -49 21 -4 15 -3 32 1 39 4 6 6 24 5 39 -3 33 20 161 43 243
21 75 26 165 10 165 -12 0 -16 -18 -35 -153 -5 -37 -21 -92 -35 -121 -24 -51
-83 -116 -105 -116 -13 0 -13 40 1 79 6 17 8 39 5 48 -6 14 -10 12 -26 -12
-24 -37 -42 -38 -51 -5 -5 21 -7 22 -14 8 -4 -11 -18 -18 -35 -18 -15 0 -42
-10 -61 -23 -49 -34 -42 -60 32 -130 69 -64 122 -87 158 -67 14 7 27 8 34 2 7
-5 25 -12 41 -16 17 -4 40 -18 52 -32 l23 -24 -25 -6 c-35 -9 -140 13 -196 42
-26 13 -55 24 -65 24 -10 0 -31 14 -48 31 -16 17 -46 39 -66 50 -20 10 -51 30
-68 45 l-32 26 -24 -25 c-15 -14 -23 -31 -19 -40 3 -8 1 -18 -5 -22 -6 -3 -11
-1 -11 6 0 18 -14 1 -25 -31 -10 -27 -11 -28 -35 -14 -24 14 -24 15 -2 11 12
-3 22 -1 22 5 0 19 -55 4 -59 -17 -2 -11 -15 -31 -30 -44 -16 -16 -19 -22 -9
-18 15 5 16 4 6 -13 -7 -11 -29 -22 -51 -25 -43 -8 -44 -14 -4 -17 35 -3 34
-6 -9 -24 -60 -25 -27 -36 128 -43 86 -4 152 -12 167 -20 16 -9 40 -11 77 -6
55 7 53 7 254 -61 12 -4 13 -6 0 -14 -8 -5 -12 -11 -10 -13 3 -3 70 -1 150 3
154 8 200 0 103 -19 -32 -6 -82 -17 -110 -25 -81 -23 -419 -58 -1068 -112 -99
-8 -191 -17 -205 -21 -22 -6 -21 -7 15 -14 47 -9 268 -21 243 -13 -10 3 -18 9
-18 14 0 16 59 27 218 40 137 11 168 7 178 -22 5 -18 7 -18 23 -4 19 17 60 27
231 55 249 41 392 48 426 20 6 -5 48 -14 94 -20 67 -9 115 -8 254 6 232 23
241 24 244 35 2 6 11 10 20 10 9 0 25 9 36 19 29 27 112 66 166 79 144 34 401
39 565 11 59 -10 88 -9 180 5 92 14 180 26 375 51 14 1 25 4 25 5 0 2 20 5
104 15 30 3 59 9 64 12 5 3 41 9 81 14 39 5 98 13 131 18 60 8 85 6 85 -9 0
-20 -349 -86 -875 -166 -55 -8 -116 -17 -135 -20 l-34 -6 24 -18 c23 -17 23
-18 6 -45 -23 -35 -15 -42 21 -16 31 22 187 56 338 74 11 1 23 6 26 10 9 12
77 26 124 27 22 0 78 9 125 20 47 10 117 26 155 35 39 9 113 25 165 37 105 23
207 53 230 68 10 7 -14 8 -73 5 -56 -3 -86 -1 -82 5 3 6 15 10 26 10 10 0 19
5 19 11 0 6 7 9 15 5 8 -3 15 -1 15 4 0 10 93 61 170 93 59 25 440 44 507 26
37 -10 59 -7 180 21 208 48 441 117 503 149 43 22 55 33 55 51 0 17 -7 26 -25
30 -30 7 -42 50 -15 50 11 0 15 5 11 15 -3 8 -1 15 4 15 18 0 10 19 -7 19 -10
1 -31 3 -48 5 -16 3 -33 5 -36 5 -11 2 -17 49 -8 58 14 14 -2 113 -17 113 -8
0 -14 3 -15 8 0 4 -3 16 -5 27 -3 11 -6 43 -7 72 -1 28 -6 55 -10 59 -8 8 -57
-42 -57 -58 0 -4 -22 -8 -50 -8 -45 0 -50 3 -56 25 -3 14 -12 25 -19 25 -9 0
-11 12 -8 40 l5 40 -44 0 c-50 0 -124 -35 -131 -62 -3 -10 -14 -18 -26 -18
-27 0 -27 15 1 34 12 9 20 17 17 18 -2 2 -13 8 -24 14 -11 7 -19 19 -17 29 2
9 -5 26 -15 37 -12 14 -18 36 -18 72 0 45 -3 51 -22 54 -21 3 -22 1 -18 -78 4
-74 2 -84 -18 -104 -12 -12 -21 -29 -19 -38 4 -18 -40 -52 -59 -46 -13 4 10
33 33 41 7 2 10 8 6 12 -5 5 -20 3 -34 -4 -37 -16 -67 -5 -60 22 5 20 1 22
-32 22 -20 0 -44 -4 -52 -10 -22 -14 -110 -12 -110 3 0 6 -4 12 -9 12 -5 0 -7
-8 -4 -19 3 -10 0 -22 -6 -25 -5 -4 -8 -13 -4 -21 3 -9 0 -22 -7 -30 -14 -16
-35 -21 -25 -5 3 5 -10 3 -29 -5 -20 -8 -38 -15 -41 -15 -11 0 -4 37 11 58 11
17 13 26 5 36 -6 7 -8 16 -5 19 4 3 3 14 -2 24 -8 18 -9 28 -12 89 -1 18 -11
42 -21 55 -18 23 -20 23 -38 6 -11 -9 -23 -17 -27 -17 -4 0 -27 -13 -51 -30
-24 -16 -48 -30 -54 -30 -6 0 -11 -6 -11 -14 0 -8 -5 -16 -10 -18 -6 -2 -13
-28 -17 -58 -3 -30 -10 -60 -15 -67 -5 -6 -11 -37 -13 -68 -2 -32 -11 -65 -18
-74 -9 -10 -14 -34 -12 -63 1 -31 -3 -52 -11 -59 -19 -15 -18 -33 1 -25 19 7
19 -6 0 -68 -8 -26 -13 -51 -10 -55 12 -20 -71 -103 -84 -84 -3 5 -24 16 -45
24 -52 19 -55 33 -9 52 l38 15 -43 -2 c-24 -1 -46 -7 -50 -13 -10 -15 -52 2
-52 21 0 8 6 17 13 20 9 4 8 7 -3 15 -8 5 -25 18 -38 29 -23 20 -23 20 -2 27
11 3 18 10 16 14 -3 4 5 16 17 26 l21 18 -22 15 c-21 14 -21 15 -5 28 17 13
17 14 -4 20 -11 3 -23 15 -26 26 -3 11 -15 22 -26 25 -26 7 -26 10 -2 49 12
20 16 35 10 41 -6 6 -2 16 11 28 18 16 19 20 5 35 -12 13 -13 23 -6 43 15 38
-7 87 -41 94 -30 6 -36 21 -16 41 9 9 4 12 -23 12 -19 0 -52 9 -74 20 -22 11
-50 20 -62 20 -13 0 -23 5 -23 10 0 6 -13 10 -30 10 -20 0 -30 5 -30 15 0 18
-5 19 -32 4 -14 -8 -27 -8 -42 -1 -77 38 -94 42 -151 38 -33 -2 -66 0 -72 6
-8 6 -13 7 -13 1z m1180 -273 c0 -10 -11 -32 -25 -48 -14 -17 -25 -34 -25 -40
0 -12 -29 -37 -35 -30 -10 10 18 84 38 102 12 10 23 22 23 27 3 19 4 20 14 14
6 -3 10 -15 10 -25z m422 -146 c-3 -19 -7 -22 -13 -12 -13 20 -11 38 5 38 9 0
12 -8 8 -26z m-519 -30 c9 -9 -16 -44 -30 -44 -14 0 -16 10 -7 34 6 16 25 21
37 10z m589 -47 c4 -6 2 -15 -4 -18 -8 -5 -6 -15 6 -33 16 -25 16 -26 -2 -26
-26 0 -82 68 -82 99 0 12 72 -7 82 -22z m-1692 9 c0 -3 -4 -8 -10 -11 -5 -3
-10 -1 -10 4 0 6 5 11 10 11 6 0 10 -2 10 -4z m1256 -61 c15 -12 16 -16 5 -24
-9 -6 -10 -11 -2 -15 6 -4 11 -16 11 -27 0 -23 -32 -26 -50 -4 -6 8 -21 17
-33 21 -12 4 -27 13 -35 21 -33 33 63 59 104 28z m847 -23 c18 -9 -27 -42 -60
-42 -36 0 -45 15 -14 25 11 3 22 12 25 20 5 13 22 12 49 -3z m-453 -55 c39 -2
45 -5 46 -24 1 -26 -18 -30 -36 -8 -18 22 -43 19 -37 -4 4 -16 -3 -19 -50 -25
-62 -7 -155 2 -147 15 2 4 11 6 19 2 11 -4 13 0 8 13 -3 11 -11 23 -17 27 -6
5 5 5 24 1 64 -13 79 -12 84 3 5 11 14 13 34 8 15 -4 47 -8 72 -8z m335 -17
c3 -5 -1 -10 -9 -10 -9 0 -16 5 -16 10 0 6 4 10 9 10 6 0 13 -4 16 -10z
m-2963 -17 c0 -10 0 -25 0 -33 -1 -8 3 -32 10 -53 9 -29 9 -40 0 -49 -7 -7
-12 -21 -12 -32 0 -16 -3 -17 -12 -8 -21 21 -28 13 -23 -25 4 -37 4 -37 -9
-13 -7 14 -16 45 -20 70 l-6 45 21 -25 21 -25 -3 37 c-2 20 0 40 4 44 4 4 7
25 7 46 0 37 18 55 22 21z m2892 -42 c3 -5 -1 -11 -8 -14 -8 -3 -20 -24 -27
-47 l-12 -40 -20 32 -19 32 28 23 c31 24 49 29 58 14z m-1446 -388 c2 -16 -4
-22 -25 -26 -15 -3 -44 -10 -64 -15 -26 -7 -40 -6 -54 4 -10 8 -14 14 -8 14 7
0 19 8 28 17 14 13 21 14 36 5 24 -15 29 -15 29 2 0 14 25 26 45 21 6 -1 11
-11 13 -22z m-275 -37 c87 10 97 8 97 -15 0 -28 -57 -47 -80 -26 -9 8 -19 12
-23 9 -10 -10 -208 -13 -201 -3 3 5 19 16 36 25 29 15 32 15 44 -1 11 -15 13
-15 23 2 8 14 11 15 11 3 1 -8 6 -4 11 10 9 22 11 23 20 8 8 -14 19 -16 62
-12z m-1666 -16 c3 -10 14 -22 26 -26 18 -6 18 -7 4 -16 -18 -10 -127 35 -127
53 0 5 21 9 46 9 37 0 47 -4 51 -20z m1436 -6 c9 -10 -4 -34 -19 -34 -8 0 -14
-6 -14 -12 0 -7 -6 -4 -12 6 -9 15 -7 22 8 33 20 14 28 16 37 7z m-629 -93 c3
-5 -4 -11 -17 -15 -35 -9 -47 -7 -47 9 0 16 55 22 64 6z"/>
<path d="M13019 5940 c-19 -10 -40 -25 -46 -32 -13 -17 -47 -128 -41 -134 3
-2 18 12 34 33 15 21 32 40 36 41 4 2 8 10 8 18 0 8 7 17 15 20 8 4 15 12 15
19 0 7 7 18 15 25 16 13 20 30 8 30 -5 -1 -24 -9 -44 -20z"/>
<path d="M1328 5928 c-18 -34 -13 -110 9 -125 22 -17 37 -2 51 49 8 29 7 40
-4 49 -7 6 -11 15 -8 20 3 5 -4 9 -16 9 -12 0 -18 5 -15 10 3 6 4 10 1 10 -3
0 -11 -10 -18 -22z"/>
<path d="M2975 5930 c-3 -5 -18 -10 -33 -11 -24 0 -25 -1 -7 -9 14 -6 7 -7
-26 -7 -29 1 -59 -5 -82 -17 -34 -19 -54 -51 -37 -61 15 -9 84 7 96 23 7 9 19
13 33 9 11 -3 21 -1 21 4 0 5 5 9 11 9 17 0 60 50 54 61 -8 12 -22 12 -30 -1z"/>
<path d="M2116 5904 c-44 -24 -133 -124 -140 -156 -3 -15 -15 -47 -27 -70 -46
-93 -67 -256 -35 -275 13 -8 57 -98 54 -111 -5 -18 16 -49 48 -74 32 -24 33
-27 15 -33 -12 -3 -21 -12 -21 -18 1 -23 29 -49 54 -51 14 0 26 -4 26 -8 0
-11 70 -4 95 9 11 5 39 9 63 8 28 0 42 3 42 12 0 7 6 13 14 13 7 0 25 11 40
25 15 14 33 25 40 25 7 0 18 18 25 40 7 23 26 53 43 68 38 34 62 86 50 110
-23 44 -23 88 1 123 36 53 67 109 67 120 0 14 -69 11 -120 -5 -25 -8 -83 -28
-130 -45 -47 -17 -91 -31 -99 -31 -7 0 -25 12 -38 26 -22 24 -23 29 -12 62 6
21 21 53 34 72 39 62 38 70 -13 127 l-47 52 -29 -15z"/>
<path d="M6267 5873 c-1 -1 -49 -2 -107 -4 -104 -2 -211 -17 -243 -35 -14 -8
-12 -12 18 -28 33 -18 45 -19 213 -7 97 7 198 19 224 27 26 8 54 14 62 14 17
0 31 18 21 28 -6 6 -183 11 -188 5z"/>
<path d="M932 5833 c-13 -25 -35 -123 -29 -129 2 -3 9 9 15 25 8 24 17 31 36
31 20 0 26 5 26 23 -1 60 -28 88 -48 50z"/>
<path d="M5615 5840 c-156 -23 -215 -42 -215 -70 0 -25 26 -30 180 -37 111 -5
144 -3 184 11 59 20 79 31 101 52 15 15 14 17 -12 31 -34 18 -159 25 -238 13z"/>
<path d="M3688 5784 c-16 -8 -28 -19 -28 -24 0 -14 23 -25 28 -12 2 7 11 12
21 12 16 0 41 18 41 30 0 11 -36 8 -62 -6z"/>
<path d="M0 5647 c0 -43 4 -67 11 -67 8 0 9 13 5 41 -4 27 -3 38 4 34 14 -9 7
32 -8 47 -9 9 -12 -3 -12 -55z"/>
<path d="M12825 5699 c-4 -6 -19 -7 -36 -4 -17 4 -29 2 -29 -3 0 -14 71 -72
87 -72 18 0 29 70 12 81 -18 12 -26 11 -34 -2z"/>
<path d="M9020 5685 c0 -9 5 -15 11 -13 6 2 11 8 11 13 0 5 -5 11 -11 13 -6 2
-11 -4 -11 -13z"/>
<path d="M875 5628 c-10 -35 -26 -88 -36 -119 -18 -53 -17 -89 2 -89 5 0 11
12 15 28 3 15 9 37 14 49 10 25 33 183 27 189 -2 2 -12 -24 -22 -58z"/>
<path d="M5030 5624 c0 -9 7 -14 17 -12 25 5 28 28 4 28 -12 0 -21 -6 -21 -16z"/>
<path d="M7108 5629 c-31 -18 -20 -30 25 -27 29 2 42 8 42 18 0 18 -43 24 -67
9z"/>
<path d="M10800 5631 c0 -4 11 -6 25 -3 14 2 25 6 25 8 0 2 -11 4 -25 4 -14 0
-25 -4 -25 -9z"/>
<path d="M12668 5615 c-4 -17 -1 -25 8 -25 8 0 14 11 14 25 0 14 -4 25 -9 25
-5 0 -11 -11 -13 -25z"/>
<path d="M13167 5612 c-18 -20 -23 -62 -8 -62 9 0 41 55 41 72 0 14 -16 9 -33
-10z"/>
<path d="M12708 5593 c7 -3 16 -2 19 1 4 3 -2 6 -13 5 -11 0 -14 -3 -6 -6z"/>
<path d="M12635 5490 c4 -19 14 -55 23 -80 8 -25 16 -78 16 -117 1 -83 -1 -81
86 -61 l53 12 29 -33 c29 -33 32 -50 13 -93 -5 -14 -2 -18 14 -18 18 0 21 6
21 45 0 32 -5 47 -18 54 -19 10 -20 11 -77 134 -20 43 -48 88 -62 100 -15 12
-44 38 -66 57 l-40 35 8 -35z"/>
<path d="M8014 5435 c-41 -17 -52 -34 -56 -85 -2 -33 -8 -46 -20 -48 -12 -2
-19 5 -24 23 -5 20 -9 23 -20 14 -8 -6 -14 -18 -14 -26 0 -18 65 -83 83 -83
30 0 86 88 71 111 -3 6 1 18 9 27 19 22 27 70 12 75 -6 3 -24 -1 -41 -8z"/>
<path d="M1280 5376 c0 -9 5 -16 10 -16 6 0 10 4 10 9 0 6 -4 13 -10 16 -5 3
-10 -1 -10 -9z"/>
<path d="M12968 5313 c7 -3 16 -2 19 1 4 3 -2 6 -13 5 -11 0 -14 -3 -6 -6z"/>
<path d="M13047 5223 c-6 -32 -3 -38 12 -28 13 8 15 55 2 55 -5 0 -11 -12 -14
-27z"/>
<path d="M6114 5115 c-42 -19 -74 -72 -74 -123 l0 -40 53 -6 c227 -26 614 -31
751 -9 38 6 38 6 33 45 -7 53 -21 66 -75 73 -26 4 -81 13 -122 20 -41 7 -145
16 -230 20 -85 4 -181 13 -213 21 -70 17 -82 17 -123 -1z"/>
<path d="M1125 5004 c-49 -13 -102 -24 -117 -24 -16 0 -28 -5 -28 -11 0 -9 22
-10 75 -6 42 3 77 1 80 -4 9 -14 32 -11 123 13 l84 22 -44 11 c-23 6 -52 14
-63 17 -11 3 -60 -5 -110 -18z"/>
<path d="M5705 5020 c-27 -4 -63 -13 -78 -19 -16 -6 -54 -12 -85 -12 -33 -1 7
-7 93 -15 206 -17 215 -17 215 1 0 17 -57 56 -80 54 -8 -1 -37 -5 -65 -9z"/>
<path d="M12722 5003 c-12 -8 -66 -23 -120 -33 -91 -17 -304 -71 -692 -177
-91 -25 -194 -51 -230 -59 -103 -22 -122 -33 -118 -63 3 -25 5 -26 63 -23 l60
2 -29 -25 c-33 -28 -35 -29 -71 -15 -20 8 -26 7 -23 -2 6 -18 63 -22 117 -8
163 41 517 54 495 18 -9 -15 33 -4 202 53 l149 50 -150 -6 c-82 -4 -199 -11
-260 -16 -131 -11 -262 -11 -290 0 l-20 8 20 6 c11 3 47 8 79 12 91 10 110 21
51 28 -28 3 -55 1 -60 -3 -6 -5 -17 -5 -25 0 -8 6 -10 10 -5 11 6 0 17 2 25 3
8 2 57 6 108 10 73 5 132 19 265 61 163 52 297 87 379 100 23 3 52 20 80 45
43 39 43 53 0 23z m-1012 -317 c0 -3 -4 -8 -10 -11 -5 -3 -10 -1 -10 4 0 6 5
11 10 11 6 0 10 -2 10 -4z"/>
<path d="M13020 4933 c-55 -27 -55 -27 -23 -31 31 -3 93 30 93 50 0 13 -11 10
-70 -19z"/>
<path d="M7660 4880 c0 -5 3 -11 8 -11 4 -1 23 -3 41 -5 33 -4 34 -3 15 11
-22 16 -64 20 -64 5z"/>
<path d="M12910 4876 c0 -2 7 -6 15 -10 8 -3 15 -1 15 4 0 6 -7 10 -15 10 -8
0 -15 -2 -15 -4z"/>
<path d="M990 4854 c-41 -7 -109 -18 -150 -23 -41 -6 -132 -19 -202 -29 -90
-13 -128 -15 -128 -7 0 9 -53 35 -73 35 -12 0 -7 -28 7 -42 8 -8 16 -23 18
-34 3 -17 12 -19 82 -19 51 0 81 4 88 13 7 8 30 12 62 11 28 -1 98 10 156 24
58 14 121 28 140 30 80 12 100 19 100 38 0 22 1 22 -100 3z"/>
<path d="M12744 4811 c-54 -27 -108 -56 -119 -65 -19 -14 -17 -15 30 -16 38 0
55 5 68 20 11 14 29 20 56 20 43 0 51 -10 51 -64 0 -51 -18 -66 -91 -76 -36
-4 -79 -14 -95 -23 -26 -14 -82 -33 -379 -134 -101 -35 -148 -61 -90 -49 17 3
49 8 73 11 23 3 75 17 115 31 40 14 97 31 127 39 30 7 109 32 175 55 104 37
126 49 166 89 25 25 70 59 101 74 31 15 71 44 89 64 37 43 37 43 -67 62 -92
17 -103 15 -210 -38z"/>
<path d="M12680 4820 c-8 -5 -10 -10 -5 -10 6 0 17 5 25 10 8 5 11 10 5 10 -5
0 -17 -5 -25 -10z"/>
<path d="M7703 4813 c9 -2 23 -2 30 0 6 3 -1 5 -18 5 -16 0 -22 -2 -12 -5z"/>
<path d="M5966 4791 c-3 -4 6 -6 19 -3 14 2 25 6 25 8 0 8 -39 4 -44 -5z"/>
<path d="M2243 4773 c9 -2 23 -2 30 0 6 3 -1 5 -18 5 -16 0 -22 -2 -12 -5z"/>
<path d="M4738 4773 c7 -3 16 -2 19 1 4 3 -2 6 -13 5 -11 0 -14 -3 -6 -6z"/>
<path d="M2168 4763 c6 -2 18 -2 25 0 6 3 1 5 -13 5 -14 0 -19 -2 -12 -5z"/>
<path d="M3819 4766 c-3 -3 -78 -6 -167 -8 -118 -2 -166 -6 -174 -15 -14 -18
-31 -16 -24 2 8 21 -7 19 -35 -5 -17 -14 -20 -20 -9 -20 8 -1 42 -3 74 -6 33
-3 82 0 110 6 51 11 688 14 1100 5 155 -3 196 -1 187 8 -9 9 -122 14 -409 20
-218 4 -453 10 -522 13 -69 3 -128 3 -131 0z"/>
<path d="M3345 4750 c-3 -5 -1 -10 4 -10 6 0 11 5 11 10 0 6 -2 10 -4 10 -3 0
-8 -4 -11 -10z"/>
<path d="M1790 4733 c-413 -43 -773 -89 -815 -104 -16 -6 -52 -13 -78 -15 -27
-3 -59 -9 -73 -14 -14 -6 -39 -10 -55 -10 -16 0 -29 -5 -29 -11 0 -8 12 -10
35 -6 47 8 48 -17 1 -33 -37 -12 -59 -43 -28 -39 31 3 34 -1 20 -23 -14 -22
-14 -23 11 -24 14 -1 61 -4 103 -7 43 -3 80 -2 83 2 9 15 136 22 262 15 68 -4
120 -11 116 -15 -5 -5 -26 -15 -48 -23 l-40 -15 40 0 c23 -1 126 8 230 18 312
32 492 44 652 45 84 1 153 2 153 3 0 5 -79 22 -115 24 -22 2 -43 8 -47 14 -4
5 -26 15 -49 20 -65 16 -62 36 4 30 45 -4 56 -2 61 11 4 9 5 18 4 18 -9 5
-396 -19 -819 -50 -52 -4 -89 -3 -92 3 -8 12 94 31 208 38 50 3 133 10 185 16
177 19 490 49 506 49 12 0 14 3 6 13 -8 9 10 13 81 15 51 2 92 4 93 5 1 1 5
12 8 25 8 25 -8 30 -29 9 -7 -8 -46 -17 -86 -21 -40 -3 -77 -10 -83 -15 -20
-16 -94 -34 -112 -27 -14 5 -15 9 -6 15 8 4 -7 8 -35 8 -34 1 -42 -2 -28 -7
l20 -9 -20 -1 c-11 0 -72 -7 -135 -15 -273 -35 -366 -44 -496 -50 -87 -4 -133
-3 -124 3 18 11 75 21 328 58 17 3 32 9 32 14 0 6 9 10 21 10 11 0 17 -4 14
-10 -3 -5 4 -10 15 -10 15 0 20 5 17 14 -4 9 10 16 46 24 29 7 81 18 117 26
61 13 47 17 -30 9z m270 -167 c0 -11 -19 -15 -25 -6 -3 5 1 10 9 10 9 0 16 -2
16 -4z m-845 -16 c4 -6 -10 -10 -34 -10 -22 0 -43 5 -46 10 -4 6 10 10 34 10
22 0 43 -4 46 -10z m-303 -40 c23 0 32 -18 18 -35 -18 -21 -38 -18 -45 6 -5
14 -13 19 -26 16 -12 -3 -23 2 -29 13 -15 28 -13 29 28 14 20 -7 45 -13 54
-14z m248 -20 c0 -12 -8 -12 -35 0 -18 8 -17 9 8 9 15 1 27 -3 27 -9z m836 -1
c-25 -6 -49 -6 -65 0 -21 8 -13 9 39 9 62 0 63 0 26 -9z"/>
<path d="M4925 4725 c25 -8 225 -12 225 -4 0 5 -53 9 -117 8 -65 0 -113 -2
-108 -4z"/>
<path d="M5173 4719 c-10 -4 14 -7 52 -7 70 0 71 4 3 10 -20 2 -45 1 -55 -3z"/>
<path d="M5313 4723 c9 -2 25 -2 35 0 9 3 1 5 -18 5 -19 0 -27 -2 -17 -5z"/>
<path d="M2088 4713 c-26 -7 -22 -33 5 -33 16 0 23 6 23 20 0 11 -3 19 -6 19
-3 -1 -13 -3 -22 -6z"/>
<path d="M2440 4710 c36 -12 62 -12 55 0 -3 6 -23 10 -43 9 -33 -1 -34 -2 -12
-9z"/>
<path d="M4076 4699 c-334 -8 -405 -14 -385 -33 3 -3 47 -1 99 3 52 4 275 9
495 11 428 2 689 15 395 19 -85 1 -173 3 -195 5 -22 1 -206 -1 -409 -5z"/>
<path d="M1685 4680 l-20 -9 20 0 c11 0 29 4 40 9 l20 9 -20 0 c-11 0 -29 -4
-40 -9z"/>
<path d="M3541 4682 c-30 -2 -59 -9 -65 -16 -11 -13 -59 -19 -264 -32 -57 -3
-82 -2 -77 5 13 22 -339 7 -715 -29 -58 -5 -126 -10 -151 -10 -33 0 -51 -6
-64 -20 -20 -22 -22 -21 59 -40 48 -11 51 -10 95 21 40 28 59 34 146 43 55 6
193 10 307 10 191 -1 210 -3 253 -23 44 -21 83 -22 71 -3 -4 7 208 33 414 51
49 5 66 10 68 22 4 21 -10 25 -77 21z"/>
<path d="M11295 4643 c-16 -2 -88 -15 -160 -28 -71 -13 -236 -41 -365 -62
-226 -36 -245 -37 -490 -38 -140 0 -269 3 -287 7 -23 5 -37 3 -47 -7 -8 -8
-17 -15 -20 -15 -18 0 -76 -47 -76 -62 0 -27 15 -30 82 -14 94 21 292 56 381
66 83 10 297 -1 422 -21 78 -13 74 -18 -35 -42 l-65 -15 50 0 c28 -1 86 5 130
13 44 8 112 20 150 25 39 6 169 35 290 66 121 30 230 55 243 55 37 -1 25 14
-35 41 -61 27 -119 38 -168 31z"/>
<path d="M6513 4633 c15 -2 37 -2 50 0 12 2 0 4 -28 4 -27 0 -38 -2 -22 -4z"/>
<path d="M11480 4630 c20 -13 43 -13 35 0 -3 6 -16 10 -28 10 -18 0 -19 -2 -7
-10z"/>
<path d="M6290 4623 c-19 -2 -96 -12 -170 -23 -74 -11 -180 -24 -235 -30 -130
-14 -308 -40 -314 -46 -7 -7 69 -4 139 6 125 17 456 59 600 75 80 9 152 18
160 20 21 4 -137 3 -180 -2z"/>
<path d="M9685 4594 c-181 -31 -220 -46 -105 -40 82 5 188 24 280 51 l45 13
-40 0 c-22 0 -103 -11 -180 -24z"/>
<path d="M9908 4590 c-36 -11 -98 -49 -98 -61 0 -13 43 -6 55 8 6 7 24 14 40
15 31 2 45 13 45 36 0 14 -4 14 -42 2z"/>
<path d="M2423 4553 c-13 -8 -23 -19 -23 -23 0 -17 85 -30 200 -30 130 -1 190
-7 190 -19 0 -9 -60 -31 -83 -31 -9 0 -17 -5 -17 -11 0 -8 8 -9 23 -3 12 4 54
6 92 4 100 -5 196 -3 305 5 72 6 89 10 71 17 -13 4 -22 10 -19 13 6 6 105 13
233 15 129 3 102 11 -91 30 -65 6 -177 17 -249 25 -147 17 -248 19 -273 6 -10
-4 -56 -4 -105 2 -77 8 -90 7 -107 -8 -17 -16 -19 -16 -39 4 -25 25 -76 27
-108 4z"/>
<path d="M9370 4543 c-25 -2 -130 -12 -235 -23 -584 -61 -892 -82 -1049 -74
-66 4 -132 10 -146 14 -19 6 -36 -1 -74 -27 -48 -34 -50 -35 -125 -30 -63 5
-69 4 -36 -4 22 -5 53 -13 68 -17 16 -4 29 -11 30 -17 4 -23 -66 -14 -174 23
-177 60 -447 107 -557 97 -108 -10 -112 -11 -112 -45 0 -29 -1 -30 -50 -30
-27 0 -95 9 -150 20 -93 18 -118 18 -301 9 -254 -14 -764 -6 -934 14 -231 27
-293 29 -420 12 -161 -20 -175 -20 -175 5 0 19 -7 20 -95 20 l-95 0 0 -30 c0
-16 -1 -30 -2 -31 -2 -1 -84 -7 -183 -14 l-180 -12 180 -2 c99 -2 205 -4 235
-5 55 -3 285 9 348 18 18 3 30 1 28 -3 -3 -5 -29 -11 -58 -14 -29 -4 -152 -18
-273 -32 -241 -28 -495 -49 -795 -66 -107 -6 -196 -12 -198 -14 -1 -1 48 -5
110 -9 114 -7 187 -22 171 -35 -4 -5 -34 -13 -66 -20 -32 -7 -56 -15 -53 -18
7 -7 109 11 271 47 122 28 231 47 471 85 116 18 481 22 497 6 14 -14 -19 -25
-124 -45 l-84 -16 80 6 c44 3 112 12 150 19 39 8 108 19 155 25 47 7 130 20
185 30 203 38 246 41 345 30 52 -6 97 -15 98 -20 2 -6 26 -10 52 -10 53 0 71
-13 43 -29 -28 -16 23 -14 177 9 141 20 572 59 745 67 190 9 446 -29 476 -70
4 -5 22 -13 40 -17 33 -8 32 -8 -14 -9 -34 -1 -46 2 -41 11 5 8 -7 10 -44 5
-35 -4 -52 -2 -56 6 -5 9 -7 9 -12 0 -3 -8 -26 -13 -56 -13 -28 0 -49 -2 -47
-4 2 -2 47 -12 99 -21 92 -16 99 -16 220 6 69 12 221 41 339 66 172 35 234 44
315 44 172 -1 401 -30 382 -49 -9 -9 -75 -32 -124 -44 -75 -17 -38 -19 84 -4
66 8 157 17 204 21 114 8 316 41 367 59 77 27 242 56 320 56 90 0 203 -24 219
-46 9 -11 22 -13 53 -8 40 6 49 17 33 40 -10 15 -90 32 -192 39 -84 7 -188 26
-210 40 -8 5 -8 11 1 21 6 8 8 13 3 12 -5 -1 -29 -3 -54 -5z m-2150 -88 c14
-8 20 -14 14 -15 -6 0 -26 -3 -43 -6 -27 -6 -31 -4 -31 15 0 25 23 27 60 6z"/>
<path d="M12790 4477 c-137 -68 -143 -72 -108 -75 43 -4 53 -21 38 -72 -6 -19
-10 -38 -10 -42 0 -10 133 65 190 107 57 42 110 100 110 120 0 17 -31 35 -57
34 -10 0 -83 -33 -163 -72z"/>
<path d="M5546 4513 c-6 -14 -5 -15 5 -6 7 7 10 15 7 18 -3 3 -9 -2 -12 -12z"/>
<path d="M11860 4510 c-18 -12 -2 -12 25 0 13 6 15 9 5 9 -8 0 -22 -4 -30 -9z"/>
<path d="M3612 4473 c3 -16 21 -20 143 -30 77 -6 150 -12 163 -12 31 -1 19
-18 -21 -30 l-32 -9 38 -1 c21 -1 57 3 80 9 49 11 203 34 402 60 l140 19 -350
1 c-192 1 -399 4 -458 6 -101 5 -108 4 -105 -13z"/>
<path d="M7755 4464 c-9 -9 -13 -19 -10 -22 3 -3 14 4 25 16 24 25 10 30 -15
6z"/>
<path d="M7820 4458 c0 -12 3 -17 8 -12 4 5 11 12 15 15 5 3 2 9 -7 12 -12 5
-16 0 -16 -15z"/>
<path d="M7578 4463 c6 -2 18 -2 25 0 6 3 1 5 -13 5 -14 0 -19 -2 -12 -5z"/>
<path d="M2460 4420 c-11 -7 -3 -10 28 -10 26 0 41 4 37 10 -8 13 -45 13 -65
0z"/>
<path d="M7628 4413 c7 -3 16 -2 19 1 4 3 -2 6 -13 5 -11 0 -14 -3 -6 -6z"/>
<path d="M1175 4395 c-41 -18 -7 -19 36 0 23 10 28 14 14 14 -11 0 -33 -6 -50
-14z"/>
<path d="M10588 4403 c7 -3 16 -2 19 1 4 3 -2 6 -13 5 -11 0 -14 -3 -6 -6z"/>
<path d="M11465 4393 c-33 -9 -98 -27 -145 -41 -68 -21 -79 -27 -56 -30 17 -2
66 8 110 22 45 14 108 35 141 45 70 23 37 25 -50 4z"/>
<path d="M835 4389 c-22 -5 -44 -14 -49 -19 -14 -14 55 -50 99 -51 68 -2 100
-13 97 -32 -3 -19 4 -18 133 13 67 16 69 17 43 28 -20 8 -28 19 -28 37 0 14
-3 25 -7 25 -139 7 -257 7 -288 -1z"/>
<path d="M2105 4382 c-61 -2 -591 -46 -745 -61 l-85 -8 65 -2 c118 -3 173 -19
119 -36 -11 -4 -19 -9 -16 -11 5 -6 316 24 387 37 62 11 181 24 344 39 105 9
152 20 88 20 -17 0 -37 6 -44 13 -14 13 -20 13 -113 9z"/>
<path d="M10478 4383 c6 -2 18 -2 25 0 6 3 1 5 -13 5 -14 0 -19 -2 -12 -5z"/>
<path d="M11985 4384 c-11 -3 -58 -17 -105 -31 -167 -50 -266 -73 -340 -80
-125 -11 -51 -22 158 -22 126 -1 191 -4 187 -11 -3 -5 -16 -10 -28 -10 -12 0
-31 -8 -42 -16 -19 -15 -17 -16 25 -10 44 7 366 83 465 110 28 8 77 21 109 30
32 9 61 17 63 19 2 2 -70 7 -159 10 -90 4 -197 9 -238 12 -41 2 -84 2 -95 -1z"/>
<path d="M3440 4350 c0 -12 64 -12 100 0 19 6 9 8 -37 9 -36 1 -63 -3 -63 -9z"/>
<path d="M8110 4340 c-8 -5 -11 -12 -7 -16 4 -4 13 -2 19 4 15 15 7 24 -12 12z"/>
<path d="M10268 4343 c7 -3 16 -2 19 1 4 3 -2 6 -13 5 -11 0 -14 -3 -6 -6z"/>
<path d="M10228 4333 c7 -3 16 -2 19 1 4 3 -2 6 -13 5 -11 0 -14 -3 -6 -6z"/>
<path d="M2675 4315 c55 -7 151 -22 214 -34 62 -11 116 -19 120 -17 3 2 101 6
216 10 243 7 365 16 365 25 0 4 -96 8 -212 9 -117 2 -265 7 -328 12 -63 5
-196 9 -295 9 l-180 -1 100 -13z"/>
<path d="M10135 4320 c-22 -5 -53 -13 -68 -19 -16 -6 -40 -11 -55 -11 -41 0
-60 -17 -25 -22 16 -2 72 10 128 29 96 31 104 40 20 23z"/>
<path d="M7190 4311 c-14 -4 -77 -15 -140 -24 -251 -36 -309 -46 -240 -41 254
19 403 40 465 65 27 10 -50 10 -85 0z"/>
<path d="M3683 4293 c20 -2 54 -2 75 0 20 2 3 4 -38 4 -41 0 -58 -2 -37 -4z"/>
<path d="M10941 4269 c-342 -55 -519 -72 -701 -65 -91 3 -230 14 -310 24 -159
19 -157 19 -430 -28 -173 -30 -196 -32 -350 -27 -100 4 -194 13 -239 23 -79
18 -148 14 -386 -21 -55 -9 -185 -18 -289 -22 -169 -5 -190 -4 -198 11 -5 10
-23 17 -46 18 -25 1 -15 4 28 8 69 8 338 74 349 86 3 4 -5 4 -19 1 -14 -3 -88
-17 -165 -31 -77 -14 -171 -33 -210 -41 -38 -8 -104 -20 -145 -25 -41 -6 -134
-24 -205 -40 -72 -16 -139 -27 -150 -25 -32 7 -497 36 -502 31 -13 -13 12 -24
54 -24 56 -1 92 -7 224 -32 118 -23 153 -38 138 -57 -6 -7 -22 -13 -35 -13
-12 0 -25 -4 -28 -8 -3 -5 7 -7 22 -5 127 13 306 38 397 54 61 10 124 21 140
23 17 3 82 14 145 25 81 15 158 21 260 21 185 0 345 -10 328 -21 -10 -7 -9 -9
5 -9 9 0 17 4 17 10 0 8 179 4 188 -5 3 -2 -44 -14 -127 -31 -13 -3 -21 -7
-18 -10 3 -3 128 16 278 42 l274 47 329 4 c241 4 343 2 381 -7 44 -11 62 -10
131 6 65 15 129 18 361 20 258 2 284 0 303 -16 20 -17 19 -18 -62 -39 -196
-52 -163 -52 87 -2 209 43 414 90 515 120 64 18 64 19 30 24 -19 4 -61 9 -92
12 -32 4 -58 11 -58 16 0 13 -22 11 -219 -22z"/>
<path d="M9095 4268 c-55 -11 -104 -24 -110 -30 -12 -12 23 -6 155 27 116 28
91 30 -45 3z"/>
<path d="M940 4270 c-8 -5 -10 -10 -5 -10 6 0 17 5 25 10 8 5 11 10 5 10 -5 0
-17 -5 -25 -10z"/>
<path d="M13006 4251 c-13 -25 -13 -31 -1 -47 14 -18 14 -18 15 4 0 32 35 29
71 -7 39 -39 37 -21 -2 24 -49 56 -65 61 -83 26z"/>
<path d="M855 4245 l-30 -13 26 -1 c15 -1 32 6 39 14 15 18 5 18 -35 0z"/>
<path d="M5540 4224 c-74 -13 -142 -24 -150 -24 -33 -1 15 -19 67 -26 29 -3
50 -10 47 -15 -3 -5 46 -9 110 -9 66 0 117 4 121 10 4 6 -23 10 -74 10 -117 0
-116 18 3 60 68 25 38 23 -124 -6z"/>
<path d="M1265 4230 c-16 -4 -44 -14 -62 -23 -18 -9 -41 -17 -53 -17 -24 0
-23 2 -9 -39 8 -22 16 -30 26 -27 8 3 17 6 19 6 2 0 4 11 4 24 0 25 25 41 103
66 58 18 42 24 -28 10z"/>
<path d="M2208 4223 c7 -3 16 -2 19 1 4 3 -2 6 -13 5 -11 0 -14 -3 -6 -6z"/>
<path d="M4748 4223 c7 -3 16 -2 19 1 4 3 -2 6 -13 5 -11 0 -14 -3 -6 -6z"/>
<path d="M6365 4209 c-222 -27 -240 -31 -243 -54 -3 -20 3 -20 245 -20 l248 0
3 30 c2 17 11 38 19 48 15 16 12 17 -53 16 -38 -1 -136 -10 -219 -20z"/>
<path d="M8898 4223 c6 -2 18 -2 25 0 6 3 1 5 -13 5 -14 0 -19 -2 -12 -5z"/>
<path d="M12460 4201 c-58 -16 -143 -38 -190 -51 -47 -12 -92 -28 -100 -36
-21 -20 1 -18 80 7 37 13 99 23 145 25 82 3 214 41 245 70 24 23 -61 16 -180
-15z"/>
<path d="M12809 4196 c-45 -16 -229 -143 -229 -158 0 -6 26 -9 73 -7 71 4 161
37 210 78 19 15 24 2 6 -16 -13 -13 -4 -33 15 -33 16 0 28 48 15 56 -5 3 -3
15 5 27 8 12 17 32 21 45 6 20 3 22 -37 22 -24 -1 -59 -7 -79 -14z"/>
<path d="M3933 4193 c9 -2 25 -2 35 0 9 3 1 5 -18 5 -19 0 -27 -2 -17 -5z"/>
<path d="M3849 4185 c-7 -6 -466 -45 -548 -46 -129 -1 -109 -16 39 -28 80 -7
172 -19 205 -27 47 -10 74 -11 127 -2 38 6 68 15 68 19 0 5 -30 9 -67 9 -74 0
-116 14 -72 24 13 3 71 13 129 21 58 9 121 20 140 24 30 8 31 9 9 10 -14 1
-28 -1 -30 -4z"/>
<path d="M925 4166 c-98 -19 -162 -66 -90 -66 13 0 30 -6 37 -12 8 -7 38 -26
68 -41 l55 -28 57 25 57 25 -27 53 c-24 48 -30 53 -62 54 -19 1 -62 -4 -95
-10z"/>
<path d="M5820 4150 c38 -12 182 -12 175 0 -4 6 -48 10 -103 9 -64 -1 -88 -4
-72 -9z"/>
<path d="M1566 4136 c3 -9 11 -16 16 -16 13 0 5 23 -10 28 -7 2 -10 -2 -6 -12z"/>
<path d="M4255 4130 c-44 -11 -138 -26 -210 -35 -239 -29 -217 -23 -213 -53
l3 -27 160 4 c118 2 164 7 176 17 8 8 26 14 40 14 13 0 85 16 161 35 75 19
160 38 190 42 l53 8 -60 6 c-106 12 -218 8 -300 -11z"/>
<path d="M11434 4130 c-28 -4 -73 -14 -100 -23 -27 -8 -94 -26 -149 -38 -55
-13 -104 -26 -109 -31 -20 -17 42 -7 139 22 55 17 138 37 185 45 47 8 99 19
115 24 l30 9 -30 0 c-16 0 -53 -4 -81 -8z"/>
<path d="M1242 4118 c-7 -7 -12 -19 -12 -27 0 -9 -11 -29 -25 -45 -14 -16 -25
-32 -25 -35 0 -9 83 -31 115 -31 29 0 31 8 10 36 -21 28 -18 34 16 34 17 0 37
6 44 14 12 12 12 16 -3 28 -17 15 -75 38 -96 38 -7 0 -17 -5 -24 -12z"/>
<path d="M12946 4101 c16 -15 80 -32 97 -26 8 4 30 -1 49 -10 l33 -16 -25 20
c-14 11 -44 25 -67 30 -51 13 -101 14 -87 2z"/>
<path d="M1397 4076 c-7 -18 1 -26 25 -26 23 0 23 12 -1 27 -15 10 -20 9 -24
-1z"/>
<path d="M12045 4082 c-16 -2 -129 -23 -250 -47 -354 -71 -418 -78 -570 -65
-187 16 -213 20 -229 36 -13 12 -34 10 -168 -16 -309 -62 -373 -70 -561 -70
-179 0 -282 13 -255 32 22 16 -96 1 -298 -37 -312 -59 -409 -67 -593 -50 -160
15 -190 20 -227 40 -26 13 -95 7 -339 -30 -214 -32 -386 -40 -590 -27 -166 11
-225 23 -225 49 0 16 6 17 -250 -22 -296 -45 -406 -57 -543 -57 -76 0 -135 -3
-133 -6 3 -3 1 -11 -5 -18 -8 -10 17 -13 126 -13 75 -1 140 -3 144 -5 3 -3
121 -5 261 -6 224 -1 268 1 360 20 121 24 250 37 235 23 -5 -5 -28 -15 -50
-22 -22 -8 -49 -20 -60 -28 -18 -13 -17 -14 15 -8 19 3 218 7 441 9 223 1 411
6 417 10 13 8 147 31 237 41 l60 7 -35 -28 c-19 -14 -26 -23 -15 -19 11 4 119
13 240 20 525 33 579 38 616 56 40 20 219 59 270 59 l32 0 -21 -23 -21 -22 82
7 c45 3 156 7 247 8 271 3 425 16 540 43 187 44 230 45 159 3 -17 -10 -29 -19
-27 -20 5 -4 472 22 603 33 66 6 145 19 175 29 68 23 240 55 272 50 22 -3 21
-5 -10 -22 -19 -9 -32 -19 -30 -20 1 -2 35 0 73 5 39 4 106 8 150 9 44 1 98 5
120 9 l40 7 -65 12 c-36 7 -114 19 -173 26 -60 8 -116 20 -125 28 -9 7 -30 12
-47 10z"/>
<path d="M10460 4065 c-30 -9 -37 -13 -20 -13 14 0 43 5 65 13 52 17 14 17
-45 0z"/>
<path d="M8640 4060 c-23 -7 -23 -8 -3 -9 12 -1 25 4 28 9 3 6 5 10 3 9 -2 -1
-14 -5 -28 -9z"/>
<path d="M2406 4051 c-3 -5 1 -11 9 -15 9 -3 15 0 15 9 0 16 -16 20 -24 6z"/>
<path d="M10360 4040 c-13 -9 -13 -10 0 -9 8 0 24 4 35 9 l20 9 -20 0 c-11 0
-27 -4 -35 -9z"/>
<path d="M790 4021 c0 -8 80 -21 125 -21 19 1 19 1 2 14 -19 15 -127 21 -127
7z"/>
<path d="M10161 4004 c-63 -13 -116 -26 -119 -29 -20 -19 196 20 273 50 30 11
-55 0 -154 -21z"/>
<path d="M11020 4020 c-12 -8 -11 -10 7 -10 12 0 25 5 28 10 8 13 -15 13 -35
0z"/>
<path d="M9182 3980 c-179 -34 -236 -50 -184 -50 20 0 216 40 367 74 121 28 5
12 -183 -24z"/>
<path d="M12518 4013 c12 -2 30 -2 40 0 9 3 -1 5 -23 4 -22 0 -30 -2 -17 -4z"/>
<path d="M8240 3994 l-65 -13 56 5 c32 3 70 9 85 14 44 13 -1 10 -76 -6z"/>
<path d="M7060 3969 c-91 -16 -273 -43 -405 -60 -132 -17 -267 -34 -300 -39
-33 -4 -152 -20 -265 -34 -312 -41 -312 -42 5 -46 160 -1 312 -3 338 -4 26 0
51 4 55 9 4 6 52 12 107 14 55 2 102 5 104 7 3 2 0 9 -7 16 -24 24 42 53 183
80 28 6 73 16 100 23 28 7 109 24 180 38 178 34 108 31 -95 -4z"/>
<path d="M682 3968 c-6 -7 -13 -27 -17 -43 -6 -27 -5 -26 14 9 21 40 23 57 3
34z"/>
<path d="M1160 3965 c0 -8 2 -15 4 -15 2 0 6 7 10 15 3 8 1 15 -4 15 -6 0 -10
-7 -10 -15z"/>
<path d="M8123 3973 c9 -2 23 -2 30 0 6 3 -1 5 -18 5 -16 0 -22 -2 -12 -5z"/>
<path d="M5092 3962 l-313 -2 3 -23 c2 -17 8 -21 30 -19 15 2 35 -1 45 -6 10
-5 35 -12 56 -16 35 -7 37 -5 37 19 0 29 17 31 128 15 298 -43 289 -42 322
-25 17 9 70 21 118 26 185 21 198 26 62 29 -69 1 -136 2 -150 3 -14 1 -166 1
-338 -1z"/>
<path d="M7940 3946 c-86 -16 -106 -22 -77 -24 37 -3 181 22 222 38 18 8 18 9
-5 8 -14 0 -77 -10 -140 -22z"/>
<path d="M8916 3923 c-11 -11 6 -23 30 -23 14 0 23 4 20 9 -7 11 -43 21 -50
14z"/>
<path d="M4732 3901 c-10 -6 -10 -10 3 -21 13 -11 15 -9 15 9 0 24 0 24 -18
12z"/>
<path d="M4956 3835 c4 -8 13 -15 21 -15 13 0 13 3 3 15 -7 8 -16 15 -21 15
-5 0 -6 -7 -3 -15z"/>
<path d="M12447 3740 c-5 -18 -4 -18 22 -3 14 10 28 18 30 20 2 2 -7 3 -21 3
-17 0 -27 -7 -31 -20z"/>
<path d="M12080 3730 c-36 -4 -95 -8 -131 -9 -53 -1 -72 -6 -99 -26 -32 -23
-41 -25 -157 -25 -75 0 -123 4 -123 10 0 15 -165 13 -177 -2 -5 -7 -20 -89
-33 -183 -12 -93 -28 -192 -36 -220 -8 -27 -23 -97 -34 -155 -11 -58 -23 -123
-28 -145 -11 -53 -6 -65 29 -65 24 0 29 4 29 25 0 15 -7 39 -15 55 -15 30 -11
115 6 126 5 3 9 18 9 35 0 16 5 29 10 29 6 0 10 25 10 55 0 30 4 55 10 55 5 0
7 6 5 13 -8 23 31 140 49 147 10 3 17 8 16 10 -1 3 2 13 5 22 10 27 44 33 61
11 12 -16 15 -16 24 -3 5 8 10 11 10 6 0 -5 7 -3 15 4 18 15 45 6 45 -16 0 -8
6 -14 13 -11 6 2 11 14 9 25 -2 16 2 22 17 22 11 0 22 9 26 20 4 14 15 20 35
20 16 0 35 7 43 15 8 8 18 11 21 7 4 -3 4 1 0 11 -3 10 -1 17 5 17 6 0 11 -10
11 -21 0 -18 3 -19 15 -9 8 6 19 9 25 5 6 -4 14 1 17 11 3 11 18 29 34 42 28
23 29 23 29 3 0 -31 18 -35 45 -9 13 13 28 23 32 23 4 0 14 4 21 9 7 4 16 5
19 2 4 -3 1 -6 -5 -6 -6 0 -9 -6 -6 -14 3 -8 -3 -20 -14 -27 -20 -14 -39 -59
-26 -59 5 0 22 13 39 29 36 35 71 45 67 19 -3 -21 -6 -20 36 -9 37 11 39 8 12
-26 -11 -14 -20 -32 -20 -39 0 -19 20 -28 33 -15 6 6 20 11 31 11 15 0 30 15
49 49 15 27 27 56 27 64 0 8 3 17 8 19 4 2 15 20 24 41 l18 37 -63 -2 c-34 0
-91 -4 -127 -8z"/>
<path d="M6130 3680 c0 -5 7 -10 15 -10 8 0 15 5 15 10 0 6 -7 10 -15 10 -8 0
-15 -4 -15 -10z"/>
<path d="M11010 3656 c-91 -7 -174 -17 -185 -23 -26 -14 -243 -25 -250 -12 -4
5 1 9 9 9 8 0 17 4 20 9 4 5 -10 5 -32 0 -20 -5 -80 -9 -132 -9 l-96 0 -12
-82 c-28 -185 -41 -269 -57 -383 -10 -66 -26 -173 -36 -238 -20 -124 -25 -219
-9 -182 4 11 16 73 26 137 9 64 21 115 25 113 4 -3 14 13 22 34 18 43 42 60
44 30 1 -10 -2 -21 -8 -24 -5 -4 -9 -14 -9 -24 0 -14 6 -17 29 -13 16 2 32 -1
35 -7 4 -6 1 -11 -7 -11 -8 0 -17 -14 -21 -32 -7 -37 -2 -45 19 -28 19 16 27
9 29 -24 1 -27 11 -35 19 -13 3 9 11 9 36 0 25 -9 34 -9 45 3 8 8 26 14 40 14
14 0 35 9 47 21 11 11 26 18 34 16 9 -4 11 1 8 14 -3 11 -9 21 -13 24 -11 7 1
56 14 53 6 -1 23 1 37 5 22 6 25 12 26 57 1 39 -2 50 -14 50 -25 0 -66 39 -69
66 -3 30 19 28 25 -2 4 -22 21 -35 34 -27 5 3 3 9 -4 14 -11 7 -10 9 4 9 9 0
17 5 17 12 0 9 3 9 12 0 18 -18 31 -14 25 8 -3 14 0 20 10 20 11 0 13 4 6 13
-17 22 -13 57 7 57 10 0 20 -6 23 -12 2 -7 7 -10 11 -7 4 4 1 13 -7 20 -17 18
-18 49 0 49 7 0 13 5 13 10 0 18 18 11 25 -10 3 -11 10 -20 15 -20 5 0 7 7 4
15 -4 9 0 15 7 15 11 0 11 2 -1 10 -8 5 -11 12 -7 17 4 4 19 -6 33 -22 21 -24
27 -27 34 -15 6 8 10 11 10 6 0 -6 5 -5 11 1 6 6 11 27 11 47 0 34 14 47 32
29 3 -4 13 -8 21 -9 24 -4 75 -44 75 -60 0 -8 6 -17 13 -19 8 -4 12 -25 11
-60 0 -30 1 -53 4 -50 3 3 20 60 37 127 35 131 65 221 78 226 4 2 7 16 7 32 0
25 -18 43 -38 39 -4 -1 -81 -7 -172 -13z m-60 -184 c0 -15 -2 -15 -10 -2 -13
20 -13 33 0 25 6 -3 10 -14 10 -23z m-580 -216 c0 -3 -4 -8 -10 -11 -5 -3 -10
-1 -10 4 0 6 5 11 10 11 6 0 10 -2 10 -4z m6 -50 c21 -21 17 -26 -10 -13 -13
7 -22 15 -20 19 7 11 14 10 30 -6z m-50 -111 c-21 -16 -32 -13 -21 4 3 6 14
11 23 11 15 -1 15 -2 -2 -15z m277 -19 c22 -17 22 -25 -2 -19 -11 3 -22 11
-25 19 -7 17 4 17 27 0z m-161 -118 c-7 -7 -12 -8 -12 -2 0 14 12 26 19 19 2
-3 -1 -11 -7 -17z"/>
<path d="M1553 3620 c4 -18 7 -39 7 -46 0 -8 7 -14 16 -14 12 0 14 5 9 18 -4
9 -10 27 -12 40 -3 12 -10 25 -16 29 -7 4 -8 -5 -4 -27z"/>
<path d="M10050 3610 c-36 -4 -93 -8 -126 -9 -44 -1 -65 -6 -75 -18 -27 -31
-78 -43 -207 -48 -123 -5 -126 -4 -90 11 38 17 63 50 30 40 -9 -3 -64 -10
-122 -17 -58 -6 -108 -15 -111 -18 -4 -3 -9 -87 -13 -187 -3 -99 -9 -201 -12
-226 -4 -30 -2 -48 5 -53 15 -8 81 57 81 80 0 8 7 15 15 15 8 0 15 7 15 16 0
9 7 14 18 12 9 -1 22 1 29 5 6 4 14 3 18 -3 8 -13 85 -13 85 1 0 5 -4 7 -10 4
-17 -11 -32 5 -19 21 13 16 33 19 24 4 -3 -5 -2 -10 4 -10 6 0 22 -12 36 -27
14 -15 25 -23 25 -17 0 5 -5 15 -12 22 -8 8 -8 15 3 28 12 15 12 16 -9 10 -13
-4 -22 -3 -22 3 0 5 -13 18 -30 28 -37 22 -38 33 -3 33 15 0 44 12 64 26 31
21 41 24 58 14 12 -6 21 -17 21 -24 0 -11 7 -11 34 2 19 8 32 21 29 27 -2 7 3
20 12 29 9 9 14 23 11 31 -3 9 0 12 10 8 9 -3 14 2 14 16 0 12 6 21 15 21 8 0
15 5 15 11 0 5 4 8 9 5 5 -3 12 1 15 10 4 9 9 14 12 11 4 -3 -8 -23 -25 -44
-30 -36 -41 -73 -22 -73 5 0 9 -16 8 -35 -1 -19 -5 -35 -9 -35 -13 0 -9 -28 5
-37 7 -4 18 -19 24 -33 9 -18 12 -20 12 -7 1 9 8 17 16 17 9 0 12 -6 8 -16 -5
-14 -3 -14 18 -3 13 6 31 15 39 19 8 4 15 17 14 28 0 13 4 18 13 15 7 -3 13
-6 13 -7 0 0 -4 -16 -10 -34 -7 -28 -7 -32 4 -23 10 9 15 7 19 -8 3 -15 11
-19 27 -16 13 2 24 6 26 7 1 2 14 57 28 123 34 162 52 222 71 241 12 12 13 19
4 30 -12 15 -26 15 -129 4z m-370 -200 c0 -5 -7 -10 -16 -10 -8 0 -12 5 -9 10
3 6 10 10 16 10 5 0 9 -4 9 -10z m-132 -162 c-3 -7 -13 -15 -24 -17 -16 -3
-17 -1 -5 13 16 19 34 21 29 4z"/>
<path d="M9021 3530 c-46 -4 -78 -12 -85 -21 -6 -8 -27 -25 -46 -37 l-35 -23
30 7 c17 4 32 11 33 16 5 12 50 10 57 -2 4 -6 15 -8 26 -5 11 4 19 2 19 -4 0
-12 -9 -14 -57 -13 -18 1 -45 -4 -60 -10 -31 -13 -38 -15 -53 -17 -6 0 -24
-14 -41 -31 -18 -16 -36 -27 -42 -23 -6 3 -7 1 -3 -5 4 -7 -4 -23 -18 -37 -16
-15 -23 -32 -20 -43 4 -13 1 -11 -14 6 -23 25 -34 29 -26 9 5 -14 -35 -37 -65
-37 -19 0 -44 -24 -54 -52 -4 -10 -2 -18 3 -18 5 0 7 -7 4 -15 -4 -8 -1 -15 5
-15 16 0 13 -37 -4 -44 -8 -3 -18 1 -22 9 -5 8 -9 -25 -11 -78 -2 -77 0 -89
10 -72 7 11 13 41 13 67 0 36 6 52 22 68 12 11 26 19 30 18 20 -4 70 17 90 39
12 12 31 23 42 23 14 0 18 5 14 20 -6 23 12 27 24 5 11 -19 80 -48 85 -35 2 6
22 8 49 4 43 -6 45 -8 41 -35 -3 -24 -9 -29 -31 -29 -15 0 -31 -4 -36 -9 -6
-5 -18 -11 -27 -13 -12 -2 -15 -7 -9 -16 5 -9 33 -14 79 -15 l71 -2 -35 -18
c-20 -10 -54 -22 -77 -25 -26 -5 -43 -13 -43 -22 -1 -8 -3 -17 -4 -20 -1 -3
-4 -17 -6 -33 -4 -22 0 -29 18 -36 20 -8 21 -10 6 -16 -9 -3 -25 -2 -37 4 -46
25 -43 0 4 -28 19 -11 40 -32 45 -45 8 -21 18 -26 60 -32 34 -4 50 -11 46 -19
-5 -15 23 -75 36 -75 5 0 8 10 6 23 -2 12 -9 21 -16 19 -6 -1 -12 2 -12 8 0 5
5 10 10 10 17 0 11 32 -7 46 -17 11 -15 14 12 25 17 7 35 11 40 10 6 -1 4 3
-2 10 -22 23 -15 54 17 73 17 9 28 22 24 27 -3 6 1 24 9 42 8 18 24 127 37
257 12 124 24 240 27 258 5 32 5 32 -33 31 -22 -1 -72 -5 -113 -9z m-367 -295
c4 -10 -6 -20 -31 -30 -20 -8 -39 -13 -42 -10 -8 8 20 25 42 25 9 0 17 7 17
15 0 19 6 19 14 0z m294 -13 c6 -18 -15 -14 -22 4 -4 10 -1 14 6 12 6 -2 14
-10 16 -16z m-216 -14 c-7 -7 -12 -8 -12 -2 0 14 12 26 19 19 2 -3 -1 -11 -7
-17z m182 -364 c3 -8 -1 -14 -8 -14 -16 0 -38 24 -30 33 9 9 32 -3 38 -19z"/>
<path d="M5725 3520 c3 -5 13 -10 21 -10 8 0 14 5 14 10 0 6 -9 10 -21 10 -11
0 -17 -4 -14 -10z"/>
<path d="M7137 3513 c-24 -4 -26 -7 -16 -20 14 -16 16 -22 28 -100 4 -29 10
-56 14 -59 3 -4 19 8 35 26 20 21 31 27 34 19 5 -14 15 -8 57 34 20 20 106 27
150 13 16 -6 21 -5 17 3 -4 6 -3 11 3 11 6 0 8 6 5 14 -5 12 5 14 53 11 32 -2
72 -7 88 -10 23 -5 26 -4 15 4 -13 9 -12 11 4 11 10 0 27 -11 38 -25 20 -26
58 -34 58 -13 0 6 -6 19 -14 27 -13 14 -10 16 27 16 23 -1 53 -4 66 -9 18 -6
28 -4 37 9 11 15 18 15 48 5 19 -6 36 -16 39 -23 2 -7 18 -11 38 -9 31 3 37
-2 63 -43 33 -53 37 -104 17 -199 -7 -32 -11 -94 -9 -137 2 -44 0 -79 -4 -79
-5 0 -8 -7 -8 -15 0 -8 -7 -15 -16 -15 -11 0 -14 -5 -10 -16 3 -9 6 -18 6 -20
0 -3 3 -3 8 -1 4 3 7 -32 7 -76 l-1 -82 -47 -30 c-60 -39 -62 -57 -4 -49 30 4
38 3 27 -5 -19 -13 -8 -23 16 -14 10 5 20 17 21 28 1 11 4 38 7 60 3 22 17
156 31 298 27 286 44 427 51 438 9 15 -34 18 -174 11 -79 -4 -149 -4 -155 0
-25 16 -191 8 -239 -10 -40 -15 -61 -17 -130 -10 -46 5 -91 13 -101 19 -20 11
-138 19 -180 12z"/>
<path d="M6160 3488 c0 -14 6 -32 14 -43 19 -27 123 -16 149 17 18 21 18 22 0
29 -10 3 -51 9 -90 13 -72 7 -73 7 -73 -16z"/>
<path d="M8280 3446 c0 -83 13 -113 54 -119 23 -4 35 0 49 15 17 20 17 22 -3
43 -11 12 -17 25 -13 28 3 4 1 7 -5 7 -27 0 -9 18 38 38 28 12 48 26 45 31 -3
5 3 11 12 13 10 2 -26 5 -79 6 l-98 3 0 -65z"/>
<path d="M8738 3503 c7 -3 16 -2 19 1 4 3 -2 6 -13 5 -11 0 -14 -3 -6 -6z"/>
<path d="M1246 3487 c3 -10 9 -15 12 -12 3 3 0 11 -7 18 -10 9 -11 8 -5 -6z"/>
<path d="M8710 3479 c0 -5 5 -7 10 -4 6 3 10 8 10 11 0 2 -4 4 -10 4 -5 0 -10
-5 -10 -11z"/>
<path d="M8480 3473 c8 -3 18 -11 22 -16 9 -15 86 -10 111 8 20 14 15 15 -63
14 -47 0 -78 -3 -70 -6z"/>
<path d="M12136 3465 c-17 -17 -21 -35 -8 -35 9 0 35 40 29 46 -3 3 -12 -2
-21 -11z"/>
<path d="M7976 3423 c-11 -11 -6 -23 9 -23 8 0 15 4 15 9 0 13 -16 22 -24 14z"/>
<path d="M7467 3399 c7 -7 15 -10 18 -7 3 3 -2 9 -12 12 -14 6 -15 5 -6 -5z"/>
<path d="M8380 3400 c0 -5 12 -10 28 -9 24 0 25 1 7 9 -27 12 -35 12 -35 0z"/>
<path d="M11305 3391 c-3 -5 -1 -12 5 -16 5 -3 10 1 10 9 0 18 -6 21 -15 7z"/>
<path d="M10960 3382 c0 -11 22 -32 32 -32 5 0 4 9 -2 20 -11 20 -30 28 -30
12z"/>
<path d="M12088 3344 c-16 -8 -28 -16 -28 -18 0 -9 40 7 51 20 14 17 11 17
-23 -2z"/>
<path d="M9670 3335 c0 -8 5 -15 10 -15 6 0 10 7 10 15 0 8 -4 15 -10 15 -5 0
-10 -7 -10 -15z"/>
<path d="M7159 3306 c-7 -8 2 -146 11 -146 8 0 22 65 25 118 2 24 -2 32 -15
32 -9 0 -19 -2 -21 -4z"/>
<path d="M8292 3273 c-13 -33 -11 -93 3 -93 6 0 10 3 10 8 0 4 4 13 8 20 12
18 12 71 0 83 -7 7 -14 1 -21 -18z"/>
<path d="M9300 3260 c0 -5 5 -10 10 -10 6 0 10 5 10 10 0 6 -4 10 -10 10 -5 0
-10 -4 -10 -10z"/>
<path d="M9680 3230 c0 -5 5 -10 10 -10 6 0 10 5 10 10 0 6 -4 10 -10 10 -5 0
-10 -4 -10 -10z"/>
<path d="M9872 3198 c-7 -7 -12 -17 -12 -24 0 -16 -38 -25 -44 -10 -2 6 -5 4
-5 -4 -1 -9 6 -25 14 -37 16 -22 16 -22 35 -3 11 11 20 29 20 39 0 11 5 23 10
26 12 7 13 25 2 25 -4 0 -13 -5 -20 -12z"/>
<path d="M9670 3185 c0 -8 5 -15 10 -15 6 0 10 7 10 15 0 8 -4 15 -10 15 -5 0
-10 -7 -10 -15z"/>
<path d="M9698 3153 c7 -3 16 -2 19 1 4 3 -2 6 -13 5 -11 0 -14 -3 -6 -6z"/>
<path d="M9736 3145 c-11 -8 -15 -15 -8 -15 6 0 9 -7 6 -15 -5 -12 1 -15 27
-14 26 1 28 3 10 6 -18 4 -22 10 -18 29 2 13 4 24 3 24 0 0 -10 -7 -20 -15z"/>
<path d="M8918 3143 c7 -3 16 -2 19 1 4 3 -2 6 -13 5 -11 0 -14 -3 -6 -6z"/>
<path d="M9445 3140 c-3 -5 -1 -10 4 -10 6 0 11 5 11 10 0 6 -2 10 -4 10 -3 0
-8 -4 -11 -10z"/>
<path d="M8305 3120 c-3 -5 -1 -10 4 -10 6 0 11 5 11 10 0 6 -2 10 -4 10 -3 0
-8 -4 -11 -10z"/>
<path d="M9801 3114 c0 -11 3 -14 6 -6 3 7 2 16 -1 19 -3 4 -6 -2 -5 -13z"/>
<path d="M9322 3013 c2 -35 6 -63 9 -63 10 0 21 69 13 82 -4 7 -3 8 4 4 7 -4
12 -1 12 9 0 9 -5 13 -11 9 -6 -3 -15 0 -20 7 -6 9 -9 -8 -7 -48z"/>
<path d="M10036 3031 c-4 -7 -5 -15 -2 -18 9 -9 19 4 14 18 -4 11 -6 11 -12 0z"/>
<path d="M10660 2960 c0 -5 5 -10 10 -10 6 0 10 5 10 10 0 6 -4 10 -10 10 -5
0 -10 -4 -10 -10z"/>
<path d="M8560 2949 c0 -5 5 -7 10 -4 6 3 10 8 10 11 0 2 -4 4 -10 4 -5 0 -10
-5 -10 -11z"/>
<path d="M1959 2933 c-10 -2 -19 -12 -22 -22 -8 -33 60 -312 94 -381 31 -64
59 -175 59 -237 0 -17 4 -34 9 -37 8 -6 25 -105 36 -221 3 -33 21 -123 40
-200 19 -77 39 -167 45 -200 13 -72 44 -209 72 -325 11 -47 24 -116 28 -153 7
-59 13 -74 41 -103 38 -40 42 -41 69 -14 26 26 27 94 1 136 -12 20 -17 45 -16
72 3 30 -5 57 -25 99 -33 66 -110 309 -110 345 0 14 -3 28 -7 32 -5 4 -8 11
-8 14 -2 24 -18 113 -25 142 -5 19 -19 76 -30 125 -12 50 -28 108 -36 129 -8
21 -16 70 -18 107 -2 38 -8 75 -14 82 -7 8 -9 16 -6 19 3 4 -2 20 -10 36 -9
17 -20 80 -26 144 -15 178 -85 423 -119 417 -3 -1 -13 -3 -22 -6z"/>
<path d="M9970 2926 c0 -9 5 -16 10 -16 6 0 10 4 10 9 0 6 -4 13 -10 16 -5 3
-10 -1 -10 -9z"/>
<path d="M11020 2924 c0 -8 5 -12 10 -9 6 3 10 10 10 16 0 5 -4 9 -10 9 -5 0
-10 -7 -10 -16z"/>
<path d="M8535 2900 c-10 -11 -13 -20 -7 -20 6 0 15 6 19 14 4 7 15 16 23 19
13 5 13 6 -1 6 -9 1 -24 -8 -34 -19z"/>
<path d="M8615 2860 c3 -5 8 -10 11 -10 2 0 4 5 4 10 0 6 -5 10 -11 10 -5 0
-7 -4 -4 -10z"/>
<path d="M9081 2854 c0 -11 3 -14 6 -6 3 7 2 16 -1 19 -3 4 -6 -2 -5 -13z"/>
<path d="M10379 2868 c-1 -2 -2 -18 -4 -36 -2 -26 1 -33 19 -37 30 -7 75 0 88
13 16 16 -30 33 -55 20 -14 -7 -19 -4 -27 17 -8 21 -17 31 -21 23z"/>
<path d="M8537 2824 c-12 -16 -16 -32 -11 -47 6 -19 5 -20 -10 -8 -13 11 -16
11 -17 0 0 -8 -1 -26 -3 -40 -1 -23 -54 -101 -81 -122 -5 -4 -20 -6 -33 -4
-12 3 -25 0 -29 -6 -4 -6 -11 -3 -18 7 -10 13 -18 14 -39 7 -14 -6 -33 -8 -41
-5 -19 8 -19 41 0 51 12 7 13 16 5 43 -6 19 -10 48 -11 65 -1 25 -3 22 -11
-15 -5 -25 -7 -75 -5 -112 2 -37 0 -69 -5 -70 -4 -2 -15 -91 -23 -198 -20
-256 -19 -270 3 -270 16 -1 16 -1 0 -14 -10 -7 -18 -16 -18 -19 0 -3 8 -8 18
-10 14 -4 14 -5 1 -6 -13 -1 -19 -21 -28 -101 -13 -121 -14 -213 -2 -206 5 3
11 23 14 43 9 67 27 137 37 147 13 13 13 39 0 31 -15 -10 -12 49 5 81 8 16 15
37 15 46 0 9 5 18 10 20 6 2 18 30 26 63 9 33 19 65 22 70 12 18 32 79 32 98
0 9 5 17 10 17 6 0 10 9 10 21 0 11 -4 18 -8 15 -5 -3 -9 0 -9 7 0 7 -4 21 -8
32 -6 19 -6 19 8 3 13 -16 15 -14 26 21 15 52 37 70 47 39 4 -13 14 -28 22
-34 11 -8 12 -13 4 -18 -18 -11 -14 -62 5 -77 15 -12 16 -12 10 4 -5 12 -1 17
13 17 13 0 20 -7 20 -20 0 -11 -6 -20 -14 -20 -8 0 -16 -7 -20 -15 -3 -8 -1
-15 5 -15 5 0 9 -7 7 -16 -5 -29 21 -27 34 3 6 15 10 32 9 36 -1 5 3 6 9 2 5
-3 19 10 31 29 21 37 33 44 44 26 10 -16 33 -11 56 13 l21 22 -6 -22 c-16 -52
51 -40 82 16 27 48 28 71 2 71 -19 0 -19 1 2 36 12 20 27 38 35 41 7 3 13 20
13 39 0 33 -14 46 -23 22 -3 -7 -6 -2 -6 11 -1 23 0 24 61 17 61 -6 61 -6 43
14 -18 19 -17 20 2 20 11 0 22 3 26 6 9 9 -95 95 -109 90 -7 -3 -18 2 -24 10
-15 17 -37 18 -43 2 -4 -9 -8 -10 -14 -2 -11 15 -83 28 -83 15 0 -13 -43 -1
-53 16 -11 18 -19 16 -40 -13z m153 -264 c0 -43 -3 -50 -20 -50 -24 0 -25 6
-5 26 8 9 15 29 15 45 0 16 2 29 5 29 3 0 5 -22 5 -50z m-54 -13 c13 16 14 14
8 -22 -3 -22 -12 -46 -18 -53 -10 -10 -12 -1 -12 40 0 29 1 45 4 35 4 -18 4
-18 18 0z m-326 -37 c-26 -7 -40 -4 -40 9 0 4 15 5 33 2 31 -4 31 -5 7 -11z
m-20 -42 c0 -5 -3 -8 -7 -8 -10 0 -43 32 -43 42 0 11 49 -24 50 -34z m410 22
c0 -5 -4 -10 -10 -10 -5 0 -10 5 -10 10 0 6 5 10 10 10 6 0 10 -4 10 -10z"/>
<path d="M8924 2745 c22 -17 36 -19 36 -6 0 10 -24 21 -43 21 -7 0 -3 -7 7
-15z"/>
<path d="M12014 2734 c-4 -10 -9 -22 -11 -26 -2 -5 0 -8 5 -8 10 0 24 41 17
48 -3 3 -8 -4 -11 -14z"/>
<path d="M12236 2697 c-11 -69 -16 -100 -21 -124 -6 -27 16 -31 35 -8 15 18 5
49 -11 39 -8 -4 -9 -3 -5 5 4 6 15 10 24 9 11 -2 18 5 20 22 4 21 2 22 -12 11
-9 -8 -19 -12 -21 -9 -11 10 7 36 28 43 22 7 22 7 -3 14 -24 7 -24 8 9 15 25
6 30 11 20 17 -8 5 -24 9 -35 9 -18 0 -23 -8 -28 -43z"/>
<path d="M11221 2714 c0 -11 3 -14 6 -6 3 7 2 16 -1 19 -3 4 -6 -2 -5 -13z"/>
<path d="M8391 2673 c-7 -8 -11 -16 -8 -19 2 -2 10 2 17 11 17 20 9 27 -9 8z"/>
<path d="M10980 2661 c0 -8 -7 -11 -15 -7 -19 7 -47 -3 -39 -15 3 -5 14 -9 25
-9 10 0 19 -5 19 -11 0 -5 -4 -7 -10 -4 -5 3 -15 3 -21 -1 -12 -7 7 -24 27
-24 11 0 28 70 19 79 -3 2 -5 -1 -5 -8z"/>
<path d="M7916 2602 c-3 -5 8 -9 24 -9 17 0 30 4 30 9 0 4 -11 8 -24 8 -14 0
-27 -4 -30 -8z"/>
<path d="M14293 2569 c-16 -16 -65 -20 -82 -6 -12 9 -13 9 -7 0 5 -10 -6 -13
-43 -13 -46 0 -51 -2 -51 -22 0 -13 3 -18 8 -12 8 13 75 17 67 4 -6 -9 20 -21
29 -13 3 4 1 12 -5 19 -7 8 -7 14 1 19 6 4 9 1 8 -7 -4 -20 60 -23 82 -3 11
10 20 12 24 6 4 -5 -1 -14 -10 -19 -13 -7 -14 -11 -4 -17 8 -5 16 -1 22 9 5 9
16 16 24 16 9 0 22 6 29 14 12 12 10 15 -13 19 -15 3 -36 8 -47 12 -11 3 -25
1 -32 -6z"/>
<path d="M10775 2540 c-3 -5 -1 -10 4 -10 6 0 11 5 11 10 0 6 -2 10 -4 10 -3
0 -8 -4 -11 -10z"/>
<path d="M7970 2506 c0 -9 7 -12 20 -9 11 3 20 9 20 14 0 5 -9 9 -20 9 -11 0
-20 -6 -20 -14z"/>
<path d="M11171 2414 c0 -11 3 -14 6 -6 3 7 2 16 -1 19 -3 4 -6 -2 -5 -13z"/>
<path d="M6598 2393 c-16 -2 -28 -9 -28 -14 0 -12 69 -7 71 6 1 12 -8 13 -43
8z"/>
<path d="M11160 2371 c0 -12 6 -21 13 -21 8 0 7 -4 -3 -10 -10 -7 -11 -10 -2
-10 20 0 25 28 8 45 -15 15 -16 15 -16 -4z"/>
<path d="M11141 2242 c-7 -42 -21 -115 -31 -162 -18 -83 -34 -245 -32 -325 0
-22 1 -53 1 -69 0 -21 4 -27 16 -22 9 3 15 1 14 -7 -4 -33 1 -41 16 -21 10 13
13 33 9 65 -6 42 -4 48 16 54 16 5 26 1 37 -15 11 -16 18 -18 29 -10 7 7 13
15 12 18 -3 27 4 72 11 72 5 0 6 -20 3 -45 -5 -52 9 -60 28 -16 10 24 9 36 -5
68 -44 100 -44 102 -34 109 6 4 15 0 20 -7 4 -7 11 -10 16 -6 4 5 1 13 -7 18
-11 8 -12 12 -2 16 6 2 12 14 12 26 0 20 2 19 19 -7 11 -16 17 -35 14 -42 -3
-9 2 -14 15 -14 23 0 34 30 25 71 -3 18 -1 29 6 29 6 0 11 -9 11 -20 0 -20 32
-44 44 -33 18 18 2 50 -37 78 -64 45 -108 87 -118 114 -13 32 -4 38 21 16 14
-13 19 -14 15 -4 -3 8 -22 25 -42 38 -27 17 -34 19 -30 7 3 -8 2 -18 -3 -21
-6 -4 -10 7 -10 23 0 17 -6 32 -15 36 -8 3 -15 16 -15 30 0 56 -18 30 -29 -42z
m64 -72 c3 -5 1 -10 -4 -10 -6 0 -11 5 -11 10 0 6 2 10 4 10 3 0 8 -4 11 -10z
m-48 -137 c-3 -10 -5 -4 -5 12 0 17 2 24 5 18 2 -7 2 -21 0 -30z m123 6 c0
-11 -4 -17 -10 -14 -5 3 -10 15 -10 26 0 11 5 17 10 14 6 -3 10 -15 10 -26z
m-99 -76 c13 -16 12 -17 -3 -4 -10 7 -18 15 -18 17 0 8 8 3 21 -13z"/>
<path d="M8445 2251 c-3 -5 -1 -12 5 -16 5 -3 10 1 10 9 0 18 -6 21 -15 7z"/>
<path d="M8450 2197 c0 -9 -4 -17 -10 -17 -14 0 -12 -13 4 -36 14 -18 15 -18
26 10 9 24 8 32 -5 45 -13 14 -15 14 -15 -2z"/>
<path d="M7750 2190 c-13 -8 -12 -10 3 -10 9 0 17 5 17 10 0 12 -1 12 -20 0z"/>
<path d="M7849 2138 c-3 -22 -1 -34 4 -29 5 5 7 21 5 37 -3 27 -4 26 -9 -8z"/>
<path d="M7761 2144 c-1 -6 -19 -14 -41 -18 -22 -3 -40 -10 -40 -15 0 -4 -11
-20 -25 -35 -21 -22 -22 -28 -9 -33 34 -13 133 69 120 100 -3 8 -5 8 -5 1z"/>
<path d="M8354 2133 c-3 -10 -10 -27 -15 -38 -5 -11 -11 -30 -14 -42 -2 -12
-9 -31 -15 -43 -12 -23 -52 -142 -70 -213 -9 -32 -23 -56 -43 -71 -26 -21 -31
-31 -34 -83 -2 -32 -11 -132 -19 -222 -9 -90 -14 -183 -10 -207 3 -24 2 -45
-3 -48 -14 -9 -23 -129 -10 -137 8 -5 7 -13 -5 -30 -9 -13 -16 -27 -16 -32 0
-15 30 14 46 45 13 25 13 27 -2 21 -14 -5 -16 -2 -11 18 4 13 7 30 7 37 0 7
15 12 41 12 36 0 40 3 39 23 -4 39 0 47 19 47 10 0 21 6 24 14 3 7 27 24 54
37 26 13 71 40 98 61 87 66 160 78 242 42 17 -8 36 -14 41 -14 6 0 27 -9 46
-21 21 -12 43 -18 55 -14 16 5 23 -3 41 -52 12 -32 26 -61 32 -64 14 -9 1 -29
-18 -29 -19 0 -18 -13 4 -26 28 -18 37 -16 38 8 1 13 9 59 18 103 10 44 20
110 23 148 5 57 4 67 -10 67 -9 0 -24 -11 -33 -25 -12 -19 -22 -23 -40 -19
-20 5 -24 2 -24 -15 0 -16 -6 -21 -25 -21 -27 0 -34 -15 -10 -24 16 -6 21 -26
7 -26 -5 0 -22 11 -38 25 -16 14 -32 25 -36 25 -5 0 -8 6 -8 14 0 8 -11 23
-24 34 -14 10 -29 38 -36 63 -16 63 -53 139 -67 139 -7 0 -13 9 -13 20 0 13
-5 18 -15 14 -21 -8 -33 29 -31 94 1 28 0 52 -2 52 -2 0 -13 -10 -24 -22 -20
-23 -20 -18 -2 27 9 21 -13 19 -25 -2 -6 -10 -11 -14 -11 -9 0 5 -6 3 -14 -3
-23 -20 -40 12 -27 50 15 44 14 156 -1 161 -7 3 -12 24 -13 51 0 26 -3 47 -7
47 -5 0 -8 7 -8 15 0 8 5 15 10 15 6 0 10 5 10 10 0 6 -9 10 -20 10 -11 0 -20
5 -20 10 0 17 -20 11 -26 -7z m30 -70 c-8 -32 -24 -55 -19 -27 2 11 4 27 4 37
1 9 6 17 11 17 6 0 8 -11 4 -27z"/>
<path d="M12310 2099 c0 -5 5 -7 10 -4 6 3 10 8 10 11 0 2 -4 4 -10 4 -5 0
-10 -5 -10 -11z"/>
<path d="M11424 2071 c16 -31 53 -54 42 -26 -8 21 14 19 38 -4 20 -18 86 -39
86 -27 0 7 -45 51 -72 70 -12 9 -42 16 -65 16 l-44 0 15 -29z"/>
<path d="M7501 2074 c-33 -17 -110 -94 -127 -126 -13 -25 -13 -28 1 -28 8 0
15 7 15 15 0 8 9 15 19 15 11 0 26 9 34 20 8 11 16 17 19 14 4 -3 9 4 13 15 3
11 16 21 28 23 12 2 22 10 22 18 0 8 4 20 8 27 11 18 -5 21 -32 7z"/>
<path d="M7515 1980 c-13 -6 -15 -9 -5 -9 8 0 22 4 30 9 18 12 2 12 -25 0z"/>
<path d="M9883 1920 c5 -31 17 -36 17 -7 0 15 -4 27 -10 27 -5 0 -9 -9 -7 -20z"/>
<path d="M14307 1896 c-6 -14 -111 -34 -147 -28 -45 7 -83 2 -101 -14 -17 -15
-37 -18 -120 -17 -54 0 -99 -3 -99 -8 0 -5 -18 -7 -41 -5 -28 2 -42 -1 -46
-10 -4 -11 -33 -14 -127 -14 -129 0 -186 -3 -226 -13 -14 -4 -61 -8 -105 -11
-44 -3 -96 -7 -115 -11 -19 -3 -89 -7 -155 -10 -102 -5 -160 -10 -160 -15 0 0
-28 -3 -63 -5 -75 -5 -88 -11 -70 -33 11 -14 9 -14 -8 1 -25 21 -34 22 -34 2
0 -8 7 -15 15 -15 8 0 15 -8 16 -17 0 -10 3 -13 5 -8 3 8 109 12 109 5 0 -7
36 -6 41 1 3 5 15 3 27 -6 26 -18 54 -19 60 -2 3 10 9 10 26 0 24 -15 91 -18
91 -4 0 9 27 8 50 -2 9 -4 39 -6 68 -4 29 3 55 0 58 -4 4 -8 134 -11 332 -9
32 0 41 -3 36 -12 -6 -10 -3 -9 9 0 12 10 42 12 124 8 59 -3 228 -8 376 -11
l267 -6 0 134 c0 143 -3 152 -49 140 -12 -3 -21 -1 -21 6 0 16 -17 14 -23 -3z"/>
<path d="M7341 1878 c-12 -4 -21 -12 -21 -18 0 -17 37 -11 72 10 l33 20 -32
-2 c-18 -1 -41 -6 -52 -10z"/>
<path d="M7645 1850 c-10 -11 -13 -20 -8 -20 13 0 38 29 31 35 -3 3 -13 -4
-23 -15z"/>
<path d="M7881 1745 c-37 -26 -83 -109 -69 -123 5 -5 2 -24 -7 -45 -19 -46
-19 -62 1 -82 15 -15 15 -17 0 -34 -22 -24 -20 -41 4 -41 11 0 20 6 20 13 0 7
5 18 12 25 12 12 14 19 25 74 3 15 15 34 28 42 21 14 24 14 29 -1 13 -34 24 5
27 97 4 89 3 95 -16 97 -11 1 -35 -9 -54 -22z m19 -25 c0 -5 -4 -10 -10 -10
-5 0 -10 -9 -10 -20 0 -29 -21 -70 -37 -70 -18 0 -16 37 3 44 8 3 14 14 12 23
-2 10 3 23 12 30 19 15 30 16 30 3z"/>
<path d="M7465 1730 c-8 -13 5 -13 25 0 13 8 13 10 -2 10 -9 0 -20 -4 -23 -10z"/>
<path d="M7420 1700 c0 -5 4 -10 9 -10 6 0 13 5 16 10 3 6 -1 10 -9 10 -9 0
-16 -4 -16 -10z"/>
<path d="M11234 1686 c-4 -16 0 -33 11 -48 l17 -23 -7 30 c-4 17 -7 38 -7 48
1 25 -7 21 -14 -7z"/>
<path d="M7530 1668 c-19 -13 -48 -29 -65 -38 -32 -16 -46 -50 -21 -50 27 0
135 74 136 93 0 22 -8 22 -50 -5z"/>
<path d="M12445 1648 c-2 -7 -11 -51 -20 -98 -45 -246 -55 -307 -55 -333 l0
-27 48 24 c62 33 83 52 121 108 18 27 45 55 61 63 17 9 30 23 30 33 0 29 -41
57 -85 57 -52 0 -58 24 -16 65 35 36 33 47 -19 89 -42 33 -58 38 -65 19z"/>
<path d="M9188 1634 c-5 -4 -8 -19 -8 -33 0 -18 3 -22 11 -14 6 6 9 21 7 33
-1 12 -6 18 -10 14z"/>
<path d="M10100 1590 c-15 -10 -22 -29 -25 -81 -1 -20 -5 -40 -7 -45 -10 -16
-28 -147 -32 -219 -1 -39 -7 -79 -13 -90 -6 -11 -14 -69 -18 -130 -3 -60 -15
-209 -25 -330 -10 -121 -21 -268 -25 -327 -3 -59 -10 -121 -15 -137 l-8 -29
51 -4 c51 -4 231 8 274 17 15 4 33 24 52 63 38 75 56 91 78 69 15 -15 15 -19
-1 -56 -10 -21 -15 -45 -11 -51 10 -17 114 -4 129 15 10 12 21 12 84 -2 40 -9
75 -13 79 -9 6 6 20 109 69 494 8 68 24 146 35 173 19 51 26 153 10 177 -8 14
-31 -100 -31 -157 0 -20 -5 -31 -15 -31 -7 0 -18 -8 -24 -17 -5 -10 -12 -15
-16 -11 -9 9 -27 158 -23 189 3 17 -1 26 -10 26 -17 0 -38 -41 -47 -90 -7 -36
-25 -52 -25 -22 0 20 -8 19 -28 -3 -10 -10 -14 -13 -11 -7 14 23 16 81 4 98
-16 22 -29 22 -21 0 4 -10 -3 -36 -16 -61 -12 -24 -24 -40 -26 -34 -2 6 4 24
12 40 10 19 13 39 7 58 l-7 28 -32 -46 c-18 -26 -32 -51 -32 -56 0 -5 -7 -23
-16 -41 -9 -17 -19 -56 -23 -87 -4 -30 -13 -60 -19 -66 -9 -9 -12 -9 -12 0 0
7 -4 12 -10 12 -5 0 -10 -7 -10 -15 0 -8 5 -15 10 -15 6 0 10 -14 10 -32 l0
-31 -28 39 c-39 56 -49 81 -61 154 -25 158 -25 168 3 210 14 22 26 46 26 54 0
8 16 28 35 45 38 33 58 72 49 95 -6 16 -44 9 -44 -8 0 -13 -83 -54 -110 -55
-8 0 -30 -4 -47 -7 -19 -4 -33 -2 -33 3 0 18 48 63 67 63 10 0 52 8 93 18 l75
19 3 37 c3 32 -2 42 -35 73 -48 45 -118 76 -153 68 -31 -7 -70 -54 -70 -85 0
-11 -5 -20 -11 -20 -7 0 -9 13 -5 38 12 78 12 97 1 118 -8 15 -16 20 -25 14z
m-30 -475 c9 -10 9 -15 1 -15 -6 0 -11 5 -11 11 0 8 -5 8 -15 -1 -14 -12 -22
0 -8 13 10 11 19 8 33 -8z m414 -201 c-3 -16 -15 -41 -26 -54 l-20 -25 6 34
c6 35 34 87 42 78 2 -2 1 -17 -2 -33z m83 -523 c22 -11 44 -28 47 -39 4 -11
14 -23 22 -26 12 -5 13 -10 4 -27 -11 -19 -12 -19 -24 -3 -16 22 -79 12 -104
-17 -17 -19 -52 -26 -52 -10 0 5 7 14 16 22 12 9 15 27 12 66 -3 48 -1 53 17
53 11 0 39 -9 62 -19z"/>
<path d="M9175 1547 c-4 -15 -5 -36 -2 -47 3 -11 2 -20 -3 -20 -9 0 -21 -59
-70 -360 -56 -350 -87 -556 -105 -705 -9 -72 -21 -148 -26 -170 -4 -22 -9 -44
-9 -48 0 -15 372 26 458 50 44 12 56 21 75 54 12 21 27 39 34 39 7 0 27 -15
45 -33 54 -54 80 -67 130 -67 57 0 49 -34 77 345 33 441 36 515 21 515 -9 0
-9 4 -3 13 15 17 23 108 13 132 -8 19 -9 19 -9 -2 -1 -33 -22 -73 -39 -73 -8
0 -12 -6 -9 -14 3 -7 1 -18 -5 -24 -6 -6 -6 -12 1 -16 17 -11 13 -34 -6 -38
-10 -2 -24 3 -30 12 -12 13 -14 13 -26 -2 -8 -10 -17 -15 -20 -11 -4 3 -7 1
-7 -5 0 -6 -7 -9 -15 -6 -11 4 -15 -1 -16 -17 -4 -95 -13 -127 -26 -93 -9 26
-30 45 -51 49 -9 2 -18 4 -20 4 -1 1 2 10 8 22 7 11 9 27 6 35 -4 11 -11 8
-32 -11 -15 -14 -29 -23 -32 -21 -6 7 -71 -43 -105 -81 -16 -18 -33 -33 -38
-33 -22 0 -5 44 36 89 48 55 71 114 61 155 -7 29 -21 34 -30 10 -5 -12 -2 -15
10 -10 27 10 10 -18 -20 -32 -15 -8 -32 -25 -38 -38 -6 -14 -16 -23 -22 -21
-15 5 -28 80 -28 157 1 77 -12 108 -35 88 -14 -12 -15 -9 -9 27 8 39 7 39 -11
22 -29 -26 -34 -21 -17 18 16 39 18 59 5 51 -10 -7 -23 43 -24 96 -1 28 -4 35
-13 27 -8 -7 -14 -6 -17 3 -2 7 -8 1 -12 -15z m332 -574 c-3 -10 -5 -4 -5 12
0 17 2 24 5 18 2 -7 2 -21 0 -30z m68 -63 c3 -5 13 -10 21 -10 9 0 22 -7 30
-15 13 -13 13 -18 -1 -45 -8 -16 -22 -30 -29 -30 -8 0 -17 -6 -19 -12 -3 -7
-6 -4 -7 7 -1 19 -1 19 -19 -2 l-19 -23 -16 25 c-14 21 -14 26 -1 39 9 8 18
29 21 45 6 30 27 41 39 21z"/>
<path d="M7927 1528 c-4 -12 -4 -24 -1 -27 6 -7 24 20 24 37 0 21 -17 13 -23
-10z"/>
<path d="M12120 1545 c0 -15 22 -45 40 -55 18 -10 18 -9 5 22 -11 28 -45 52
-45 33z"/>
<path d="M6750 1520 c0 -5 5 -10 10 -10 6 0 10 5 10 10 0 6 -4 10 -10 10 -5 0
-10 -4 -10 -10z"/>
<path d="M2578 1498 c-8 -21 2 -38 34 -54 36 -19 52 -8 43 29 -9 33 -67 52
-77 25z"/>
<path d="M8933 1498 c-4 -7 -15 -13 -23 -13 -8 0 -16 -10 -18 -23 -3 -20 0
-23 20 -20 13 2 22 9 20 17 -1 7 3 19 9 27 7 8 9 17 6 20 -3 3 -9 0 -14 -8z"/>
<path d="M11346 1470 c6 -27 4 -31 -12 -28 -15 2 -19 -3 -19 -24 1 -16 -3 -28
-7 -28 -4 0 -8 -9 -8 -20 0 -12 -7 -20 -16 -20 -11 0 -14 -5 -9 -17 3 -10 9
-30 12 -46 4 -22 3 -26 -10 -21 -9 3 -17 15 -19 27 -2 12 -9 21 -16 20 -6 -2
-19 8 -28 22 -9 14 -23 25 -32 25 -15 0 -14 -46 2 -155 2 -16 -1 -36 -6 -43
-8 -9 -3 -23 19 -50 29 -36 49 -92 32 -92 -4 0 -11 -9 -14 -20 -9 -29 -22 -25
-30 10 -4 17 -10 30 -15 30 -4 0 -17 23 -29 50 -22 51 -41 65 -41 30 0 -11 -7
-20 -15 -20 -19 0 -19 -2 6 -44 23 -39 22 -41 -16 -26 -21 8 -26 7 -22 -2 2
-7 11 -12 18 -10 10 3 11 0 3 -8 -8 -8 -8 -26 1 -65 11 -44 11 -53 0 -49 -8 3
-16 12 -19 20 -3 9 -10 12 -16 9 -5 -3 -10 2 -10 11 0 10 -3 14 -7 11 -3 -4
-14 0 -23 8 -13 12 -16 27 -12 65 8 84 -5 55 -17 -37 -12 -90 -25 -172 -62
-395 -12 -70 -19 -132 -17 -139 2 -7 29 -13 65 -14 101 -4 161 -66 113 -117
-11 -12 -20 -24 -20 -27 0 -6 -18 -14 -87 -41 -18 -7 -42 -10 -54 -7 -27 7
-49 -1 -49 -19 0 -17 57 -19 139 -4 31 5 110 14 175 19 102 9 122 14 143 33
20 18 26 20 33 8 7 -11 11 -11 24 -1 9 8 16 20 16 27 0 8 4 14 8 14 5 0 14 12
21 26 11 24 14 25 69 19 43 -5 63 -13 80 -31 27 -31 38 -25 45 23 3 21 22 132
42 248 72 415 115 684 115 719 0 28 -4 36 -18 36 -10 0 -23 -5 -29 -11 -9 -9
-18 -5 -36 15 -13 14 -27 26 -29 26 -12 0 2 -53 18 -71 24 -27 10 -35 -15 -10
-12 12 -24 21 -28 21 -4 0 -2 -5 5 -12 7 -7 12 -17 12 -22 -1 -21 -40 39 -40
60 0 12 -11 29 -24 37 -24 16 -24 16 -21 -17 4 -45 -7 -60 -39 -52 -17 4 -23
11 -20 21 4 8 2 15 -4 15 -5 0 -13 -7 -16 -16 -8 -22 -32 -3 -40 32 -4 14 -19
37 -33 50 -15 13 -31 34 -37 46 -18 36 -37 34 -30 -2z"/>
<path d="M12140 1439 c0 -16 -3 -19 -12 -11 -17 12 -78 21 -78 10 0 -4 7 -8
15 -8 8 0 15 -5 15 -10 0 -6 11 -22 25 -35 l24 -25 -27 0 c-15 0 -36 7 -46 15
-11 8 -26 15 -34 15 -12 0 -11 -5 4 -21 19 -21 19 -22 -3 -15 -19 6 -23 4 -22
-16 1 -13 -3 -36 -10 -52 -6 -15 -16 -56 -21 -90 -5 -33 -25 -151 -44 -261
-85 -484 -106 -602 -111 -630 l-5 -30 40 42 c30 32 48 43 70 43 27 0 30 -3 30
-30 0 -17 -11 -53 -25 -80 -29 -57 -9 -61 26 -4 11 19 31 37 44 40 37 9 48 30
51 92 3 74 18 164 64 402 5 28 5 49 -1 57 -7 7 -6 13 1 18 5 3 10 15 10 26 0
10 5 19 11 19 6 0 4 7 -5 15 -8 9 -13 21 -11 28 14 38 49 265 52 342 3 49 9
93 15 96 16 10 1 57 -22 69 -17 9 -20 8 -20 -11z m-156 -994 c-10 -8 -26 -14
-34 -14 -11 0 -10 3 4 14 11 8 27 15 35 15 11 0 10 -4 -5 -15z"/>
<path d="M3065 1441 c-12 -11 -4 -91 11 -105 18 -19 26 -20 41 -5 6 6 52 11
103 12 83 2 94 4 111 26 10 13 19 34 19 46 0 22 -5 24 -82 30 -85 6 -195 4
-203 -4z"/>
<path d="M10615 1430 c3 -11 -1 -33 -9 -49 -18 -34 -21 -71 -6 -71 14 0 30 35
30 65 0 14 6 28 14 31 19 7 10 31 -15 37 -16 4 -19 1 -14 -13z"/>
<path d="M10430 1420 c0 -8 5 -22 10 -30 9 -13 10 -13 10 0 0 8 -5 22 -10 30
-9 13 -10 13 -10 0z"/>
<path d="M7150 1411 c0 -6 5 -11 10 -11 6 0 10 -11 10 -25 0 -28 3 -29 31 -15
24 13 25 32 2 28 -10 -2 -18 3 -18 12 0 8 -8 16 -17 18 -10 2 -18 -1 -18 -7z"/>
<path d="M3625 1390 c-3 -5 3 -10 14 -10 11 0 23 5 26 10 3 6 -3 10 -14 10
-11 0 -23 -4 -26 -10z"/>
<path d="M7740 1375 c-7 -8 -18 -15 -25 -15 -7 0 -18 -7 -25 -15 -7 -8 -28
-15 -46 -15 -19 0 -34 -4 -34 -8 0 -5 -11 -14 -25 -20 -14 -6 -25 -17 -25 -24
0 -7 -12 -22 -25 -33 -68 -53 -114 -122 -100 -145 4 -6 2 -10 -4 -10 -6 0 -8
-7 -5 -15 4 -10 0 -15 -14 -15 -27 0 -113 -49 -111 -63 3 -27 -3 -36 -43 -63
-24 -16 -46 -29 -50 -29 -3 0 -10 -3 -14 -7 -4 -5 -16 -8 -26 -8 -25 0 -58
-57 -58 -100 1 -89 -36 -452 -51 -520 -5 -18 11 -18 206 -1 77 7 148 18 158
23 27 14 20 74 -8 70 -11 -1 -41 -5 -66 -8 -44 -6 -47 -5 -53 21 -6 25 -9 26
-49 20 -47 -8 -45 -8 -69 -6 -23 1 -48 29 -48 53 0 11 15 35 34 54 29 29 41
34 81 34 32 0 56 -7 78 -23 40 -28 93 -37 84 -13 -12 30 22 17 67 -26 36 -36
45 -52 51 -93 8 -58 15 -65 72 -65 41 0 42 1 80 67 31 54 46 70 73 79 27 9 34
17 36 40 4 52 -8 96 -27 101 -13 4 -17 15 -17 50 0 29 -6 49 -16 56 -12 9 -16
34 -18 107 -2 89 -1 98 25 138 15 23 53 68 84 98 48 46 58 53 63 38 5 -13 9
-15 14 -5 5 7 4 17 -2 23 -7 7 -4 16 9 29 23 23 26 129 4 129 -21 0 -28 -19
-14 -36 15 -19 1 -35 -74 -81 -79 -50 -118 -66 -162 -67 -34 -1 -40 2 -43 21
-2 12 -10 24 -18 27 -9 3 -12 1 -9 -4 3 -6 -3 -10 -14 -10 -27 0 -26 4 4 34
14 14 25 28 25 31 0 6 13 23 43 56 9 10 17 23 17 27 0 18 101 114 114 109 8
-3 16 0 19 7 7 17 -38 19 -53 1z m-540 -604 c-6 -12 -17 -21 -25 -21 -22 0
-18 21 5 27 11 3 20 10 20 16 0 6 3 8 6 5 3 -4 1 -16 -6 -27z m177 -166 c-18
-13 -17 -14 10 -29 l28 -15 -31 -1 c-38 0 -42 4 -36 35 3 18 11 25 26 25 20
-1 20 -1 3 -15z"/>
<path d="M2821 1334 c-2 -19 -70 -102 -83 -101 -37 1 -48 -7 -66 -45 -11 -24
-24 -65 -28 -93 -4 -27 -8 -52 -9 -55 -17 -54 -16 -60 9 -91 14 -17 26 -34 26
-38 0 -4 -13 -15 -30 -24 -17 -10 -30 -27 -30 -38 0 -26 -18 -24 -23 4 -4 19
-4 18 -6 -5 0 -16 4 -28 10 -28 7 0 8 -13 4 -38 -4 -29 -2 -42 9 -51 14 -12
14 -16 -2 -43 -19 -32 -107 -118 -122 -118 -20 0 -19 22 3 62 18 32 29 42 45
40 17 -3 22 4 28 33 4 23 2 41 -5 48 -17 17 -13 68 9 107 11 19 20 31 20 25 1
-5 6 3 10 18 11 38 -4 77 -29 77 -22 0 -63 -38 -55 -51 11 -18 -36 -79 -61
-79 -24 0 -37 -47 -31 -113 5 -49 3 -63 -14 -84 -25 -33 -25 -69 0 -111 11
-18 20 -43 20 -57 0 -27 35 -65 61 -65 9 0 22 7 29 15 20 24 44 18 58 -14 15
-34 48 -46 78 -26 17 11 24 34 37 117 10 57 17 123 16 148 0 25 4 67 10 94 7
27 11 68 10 92 -2 27 3 50 13 61 8 10 20 33 28 51 7 17 16 32 20 32 4 0 12 17
17 38 8 32 7 42 -9 61 -10 13 -18 36 -18 52 0 32 7 37 24 13 7 -9 18 -12 29
-8 13 5 17 18 16 63 0 50 -15 152 -18 125z"/>
<path d="M6792 1324 c-7 -8 -17 -12 -22 -9 -10 6 -18 -16 -23 -61 -3 -26 -1
-31 13 -27 12 3 23 -5 34 -28 9 -17 16 -37 16 -44 0 -20 22 -35 36 -24 9 7 11
3 9 -18 -4 -37 -16 -73 -24 -73 -4 0 -7 -8 -7 -17 0 -10 -4 -37 -8 -60 -6 -34
-5 -43 6 -43 8 0 15 -6 15 -12 0 -7 3 -26 7 -43 3 -16 4 -25 0 -18 -3 7 -12 9
-20 6 -7 -3 -11 -10 -7 -16 3 -6 1 -7 -6 -3 -7 5 -23 5 -37 2 -22 -6 -24 -11
-24 -60 0 -63 38 -174 66 -193 40 -26 58 18 71 169 4 57 3 69 -11 74 -10 4
-16 18 -16 36 0 23 4 29 15 24 11 -4 15 3 16 27 1 18 2 48 4 67 16 239 16 306
1 319 -9 8 -16 10 -16 6 0 -5 -8 -1 -18 8 -10 10 -22 14 -25 11 -4 -4 -12 -2
-19 4 -9 7 -17 6 -26 -4z"/>
<path d="M7246 1325 c4 -8 8 -15 10 -15 2 0 4 7 4 15 0 8 -4 15 -10 15 -5 0
-7 -7 -4 -15z"/>
<path d="M10548 1323 c-10 -2 -18 -11 -18 -19 0 -8 -9 -14 -21 -14 -11 0 -17
5 -14 10 3 6 2 10 -3 10 -13 0 -36 -29 -29 -37 3 -3 0 -18 -9 -34 -8 -17 -12
-39 -8 -54 5 -20 9 -23 24 -15 26 14 30 13 30 -10 0 -15 7 -20 25 -20 14 0 25
-5 25 -12 0 -6 3 -8 6 -5 4 4 1 13 -6 22 -14 17 -11 57 15 158 4 15 6 26 4 26
-2 -1 -12 -3 -21 -6z"/>
<path d="M7321 1294 c0 -11 3 -14 6 -6 3 7 2 16 -1 19 -3 4 -6 -2 -5 -13z"/>
<path d="M7270 1290 c0 -5 -6 -10 -14 -10 -26 0 -26 -16 0 -18 18 -1 24 3 24
18 0 11 -2 20 -5 20 -3 0 -5 -4 -5 -10z"/>
<path d="M7473 1290 c-13 -5 -23 -14 -23 -19 0 -5 -12 -11 -27 -13 -16 -2 -26
-7 -23 -13 3 -5 10 -8 15 -6 6 2 24 4 40 5 17 0 39 9 49 19 11 9 23 17 28 17
4 0 8 5 8 10 0 12 -37 12 -67 0z"/>
<path d="M10355 1210 c4 -6 11 -8 16 -5 14 9 11 15 -7 15 -8 0 -12 -5 -9 -10z"/>
<path d="M10379 1193 c-18 -5 -36 -36 -42 -76 -7 -45 10 -41 29 7 11 25 27 47
36 50 10 2 18 9 18 15 0 11 -11 12 -41 4z"/>
<path d="M10431 1174 c0 -11 3 -14 6 -6 3 7 2 16 -1 19 -3 4 -6 -2 -5 -13z"/>
<path d="M4128 1163 c-10 -12 -9 -18 7 -29 33 -24 62 -13 49 19 -8 22 -41 27
-56 10z"/>
<path d="M11014 1144 c0 -21 3 -30 8 -22 10 16 10 45 1 51 -5 3 -8 -10 -9 -29z"/>
<path d="M7158 1093 c-9 -11 -12 -27 -9 -39 l6 -22 43 20 c38 19 53 43 25 43
-6 0 -15 3 -19 8 -12 12 -30 8 -46 -10z"/>
<path d="M3270 1090 c-23 -15 1 -44 39 -48 32 -3 38 7 25 42 -7 18 -41 21 -64
6z"/>
<path d="M11000 1092 c0 -10 22 -32 32 -32 15 0 8 15 -12 28 -11 7 -20 9 -20
4z"/>
<path d="M9575 1077 c-4 -10 -5 -21 -1 -24 10 -10 18 4 13 24 -4 17 -4 17 -12
0z"/>
<path d="M8607 1073 c-12 -12 -7 -22 8 -17 8 4 15 10 15 15 0 11 -14 12 -23 2z"/>
<path d="M8704 1058 c-17 -4 -38 -15 -45 -24 -12 -15 -11 -16 6 -11 23 8 50
-6 41 -21 -6 -11 44 -32 77 -32 17 0 19 -5 13 -32 -5 -24 -2 -34 12 -44 26
-18 18 -74 -10 -74 -21 0 -94 -35 -103 -50 -3 -5 -22 -17 -42 -27 l-36 -17 31
-14 c19 -9 32 -24 35 -41 11 -56 -13 -55 -122 9 -126 74 -192 119 -225 152
-10 11 -21 16 -25 12 -3 -4 0 -9 7 -11 6 -3 12 -11 12 -19 0 -18 48 -64 110
-106 25 -17 61 -47 80 -68 19 -20 43 -39 53 -43 9 -3 17 -13 17 -22 0 -11 -6
-14 -25 -9 -19 5 -25 2 -25 -10 0 -20 -19 -21 -26 -1 -9 22 -26 18 -19 -4 8
-26 -18 -46 -35 -26 -7 8 -19 15 -26 15 -22 0 -16 -27 6 -33 22 -6 27 -32 8
-43 -7 -4 -28 -11 -48 -14 -35 -7 -33 -9 24 -26 69 -21 63 -80 -9 -85 -22 -1
-46 -7 -54 -13 -13 -10 -16 -8 -57 49 -12 16 -16 17 -23 6 -7 -11 -15 -11 -42
-2 -42 14 -46 9 -26 -34 9 -19 12 -35 7 -35 -6 0 -10 4 -10 9 0 12 -71 24 -81
14 -4 -4 22 -24 58 -43 37 -19 68 -41 71 -47 8 -27 -35 -11 -114 42 -46 30
-90 55 -99 55 -18 0 -49 -65 -40 -81 4 -5 30 -9 58 -8 34 1 75 -8 120 -25 37
-14 76 -26 87 -26 30 0 24 -15 -15 -35 -19 -11 -32 -22 -29 -24 3 -3 31 -11
62 -17 61 -13 147 -7 365 22 142 19 176 29 159 46 -15 15 -15 90 -2 172 19
118 50 393 50 452 0 32 7 90 15 129 20 95 20 95 -18 95 -19 0 -54 6 -78 13
-28 9 -55 10 -75 5z"/>
<path d="M2837 1026 c-6 -15 1 -26 15 -26 4 0 8 9 8 20 0 23 -15 27 -23 6z"/>
<path d="M6399 1020 c-21 -12 -31 -62 -34 -177 -3 -81 -1 -93 15 -98 26 -8 64
9 109 50 40 36 41 37 72 21 40 -20 33 -21 64 9 29 30 32 53 8 62 -10 4 -22 12
-26 20 -10 17 -54 17 -60 1 -2 -7 -8 -9 -13 -5 -5 4 -3 12 5 16 14 9 -27 60
-76 92 -32 21 -41 22 -64 9z"/>
<path d="M2294 995 c-8 -34 4 -114 22 -142 10 -17 24 -23 49 -23 40 0 45 5 47
59 1 45 -23 80 -81 114 -30 18 -30 18 -37 -8z"/>
<path d="M12296 859 c-9 -45 -7 -79 3 -79 14 0 26 89 14 101 -7 7 -12 -1 -17
-22z"/>
<path d="M5497 743 c-13 -12 -7 -51 9 -57 8 -3 25 -1 36 5 20 11 20 11 -3 35
-24 25 -31 28 -42 17z"/>
<path d="M6588 623 c-9 -43 -20 -105 -23 -138 l-7 -60 19 26 c23 33 79 89 89
89 4 0 15 7 25 16 16 15 16 17 -2 52 -10 20 -23 49 -29 65 -6 19 -16 27 -32
27 -21 0 -25 -8 -40 -77z"/>
<path d="M2123 653 c-7 -3 -13 -13 -13 -23 0 -10 -4 -22 -10 -25 -20 -12 -9
-50 24 -85 32 -32 35 -41 38 -101 2 -52 -1 -70 -15 -83 -29 -29 -22 -64 18
-83 28 -13 37 -14 50 -3 23 19 19 65 -21 222 -40 155 -52 187 -71 181z"/>
<path d="M6096 565 c-9 -10 -16 -25 -14 -34 4 -22 42 -26 58 -6 11 14 10 19
-7 36 -19 19 -21 19 -37 4z"/>
<path d="M5210 511 c-16 -32 -13 -63 7 -59 24 4 45 48 31 65 -15 18 -26 16
-38 -6z"/>
<path d="M5670 506 c0 -17 5 -26 16 -26 10 0 14 7 12 22 -5 32 -28 35 -28 4z"/>
<path d="M4275 450 c-27 -51 -13 -68 25 -30 24 24 26 46 5 54 -10 3 -20 -5
-30 -24z"/>
<path d="M12178 457 c-26 -10 -46 -42 -35 -53 11 -12 67 27 67 46 0 11 -1 20
-2 19 -2 -1 -15 -6 -30 -12z"/>
<path d="M6045 427 c-4 -19 -5 -40 -4 -48 5 -23 -11 -59 -27 -59 -21 0 -17
-22 11 -48 14 -14 34 -22 47 -20 19 2 23 8 20 36 -4 39 19 44 36 7 17 -36 78
-36 92 0 8 21 16 25 50 25 39 0 40 1 40 33 0 51 -11 60 -63 52 -42 -7 -48 -5
-69 20 -21 24 -26 26 -51 14 -23 -10 -30 -10 -45 4 -26 24 -30 22 -37 -16z
m80 -27 c3 -5 1 -10 -4 -10 -6 0 -11 5 -11 10 0 6 2 10 4 10 3 0 8 -4 11 -10z
m-31 -42 c-3 -4 -12 -8 -20 -8 -12 0 -12 4 -2 20 8 13 15 16 19 8 4 -7 5 -16
3 -20z"/>
<path d="M7297 444 c-25 -13 -26 -16 -12 -30 20 -21 70 -5 70 22 0 24 -23 28
-58 8z"/>
<path d="M6554 366 c-4 -11 -2 -21 7 -27 12 -8 12 -10 0 -18 -11 -7 -10 -11 7
-20 26 -14 72 -14 72 -1 0 6 -10 15 -23 21 -13 6 -31 23 -40 37 -14 24 -16 25
-23 8z"/>
<path d="M7745 350 c20 -22 64 -35 77 -22 13 13 -11 28 -56 35 -37 6 -38 5
-21 -13z"/>
<path d="M2901 346 c-12 -14 -5 -26 16 -26 15 0 18 26 4 34 -5 3 -14 0 -20 -8z"/>
<path d="M6787 318 c-32 -23 -23 -38 24 -38 34 0 51 18 38 42 -12 23 -27 22
-62 -4z"/>
<path d="M5165 297 c-36 -12 -40 -15 -36 -42 1 -17 5 -33 8 -37 10 -17 60 -7
87 18 21 20 30 24 36 14 5 -8 17 -10 35 -6 20 5 26 12 23 29 -2 17 -10 22 -33
24 -16 1 -41 4 -55 7 -14 3 -43 0 -65 -7z"/>
<path d="M11415 290 c19 -22 69 -27 81 -9 10 16 -16 29 -60 29 -38 0 -39 0
-21 -20z"/>
<path d="M4985 214 c21 -21 42 -33 51 -30 18 7 18 26 0 26 -7 0 -25 9 -39 20
-42 33 -50 22 -12 -16z"/>
<path d="M4330 203 c-94 -37 -111 -46 -103 -54 13 -13 104 9 149 36 85 50 60
59 -46 18z"/>
<path d="M1776 195 c6 -16 54 -21 54 -6 0 5 -10 11 -22 15 -34 9 -38 7 -32 -9z"/>
<path d="M1892 199 c15 -9 76 -4 87 7 2 2 -20 4 -50 4 -41 -1 -50 -3 -37 -11z"/>
<path d="M3280 195 c0 -19 58 -29 93 -16 45 17 31 31 -33 31 -46 0 -60 -3 -60
-15z"/>
<path d="M10637 186 c-26 -20 -8 -26 33 -10 19 7 30 13 23 13 -6 1 -17 3 -25
6 -7 2 -21 -2 -31 -9z"/>
<path d="M2227 179 c7 -7 15 -10 18 -7 3 3 -2 9 -12 12 -14 6 -15 5 -6 -5z"/>
<path d="M12118 170 c-68 -13 -178 -103 -178 -145 0 -22 4 -25 38 -25 33 0 52
11 128 71 135 108 136 124 12 99z"/>
<path d="M2493 145 c-7 -20 0 -27 20 -19 9 3 13 12 10 20 -7 19 -22 18 -30 -1z"/>
<path d="M4570 131 c-85 -24 -250 -85 -292 -108 l-33 -18 58 -3 c43 -2 73 3
120 22 34 13 82 29 107 36 72 18 170 51 170 57 0 10 -35 32 -50 32 -8 0 -44
-8 -80 -18z"/>
<path d="M9518 143 c6 -2 18 -2 25 0 6 3 1 5 -13 5 -14 0 -19 -2 -12 -5z"/>
<path d="M2865 108 c-86 -27 -105 -36 -105 -48 0 -15 37 -11 120 13 50 15 75
27 75 37 0 21 -21 21 -90 -2z"/>
<path d="M9280 120 l-35 -7 37 -2 c20 0 40 4 43 9 7 11 7 11 -45 0z"/>
<path d="M9193 103 c9 -2 23 -2 30 0 6 3 -1 5 -18 5 -16 0 -22 -2 -12 -5z"/>
<path d="M3485 84 c-27 -7 -62 -14 -77 -14 -37 0 -36 -14 2 -30 35 -15 80 -6
80 15 0 9 13 18 30 22 17 3 33 10 36 14 7 12 -11 10 -71 -7z"/>
<path d="M11058 93 c6 -2 18 -2 25 0 6 3 1 5 -13 5 -14 0 -19 -2 -12 -5z"/>
<path d="M11640 54 c-25 -7 -61 -14 -80 -14 -20 0 -40 -4 -45 -9 -6 -5 -19
-11 -30 -14 -30 -8 73 2 125 12 25 5 48 7 52 5 4 -3 24 4 45 15 l38 20 -30 0
c-16 0 -50 -7 -75 -15z"/>
<path d="M1845 50 c3 -5 22 -10 41 -10 19 0 34 5 34 10 0 6 -18 10 -41 10 -24
0 -38 -4 -34 -10z"/>
<path d="M7491 46 c-40 -9 -55 -17 -57 -30 -2 -17 8 -18 174 -14 103 2 185 8
196 15 19 10 19 11 0 16 -86 26 -223 32 -313 13z"/>
<path d="M2635 36 c-23 -7 -50 -18 -60 -24 -17 -10 -14 -11 25 -12 40 0 110
29 110 45 0 8 -32 4 -75 -9z"/>
<path d="M3855 29 c-33 -12 -62 -23 -64 -25 -3 -3 29 -3 70 -2 68 3 74 5 77
26 4 27 -6 27 -83 1z"/>
<path d="M5395 29 c-55 -10 -104 -21 -110 -24 -16 -8 298 2 318 10 10 4 16 13
14 19 -6 18 -114 16 -222 -5z"/>
<path d="M6383 43 c-26 -5 -31 -23 -8 -23 8 0 15 -4 15 -10 0 -6 77 -10 213
-9 l212 1 -90 20 c-86 19 -292 32 -342 21z"/>
<path d="M6128 13 c6 -2 18 -2 25 0 6 3 1 5 -13 5 -14 0 -19 -2 -12 -5z"/>
<path d="M7250 10 c-12 -8 -11 -10 5 -9 11 1 31 5 45 9 24 8 24 8 -5 9 -16 0
-37 -4 -45 -9z"/>
<path d="M8160 10 c-66 -4 -16 -7 168 -8 157 -1 261 2 258 7 -7 10 -279 11
-426 1z"/>
</g>
</svg>
